<?xml version="1.0" encoding="UTF-8"?><svg id="Layer_1" xmlns="http://www.w3.org/2000/svg" xmlns:xlink="http://www.w3.org/1999/xlink" viewBox="0 0 500 750"><defs><style>.cls-1{fill:url(#linear-gradient-2);}.cls-2{opacity:.18;}.cls-3,.cls-4{fill:#fff;}.cls-5{fill:#b2cc54;}.cls-6{fill:url(#linear-gradient-6);}.cls-7{fill:url(#linear-gradient-11);}.cls-8{fill:url(#linear-gradient-10);}.cls-9{fill:url(#radial-gradient);}.cls-4{font-family:MontserratRoman-Bold, Montserrat;font-size:40px;font-variation-settings:'wght' 700;font-weight:700;letter-spacing:-.02em;}.cls-10{fill:url(#linear-gradient-5);}.cls-11{clip-path:url(#clippath);}.cls-12{fill:url(#radial-gradient-2);}.cls-13{fill:none;}.cls-14{fill:url(#linear-gradient-7);}.cls-15{fill:url(#linear-gradient-9);}.cls-16{fill:url(#linear-gradient-3);}.cls-17{fill:url(#linear-gradient);}.cls-18{fill:url(#linear-gradient-4);}.cls-19{fill:url(#linear-gradient-8);}</style><clipPath id="clippath"><rect class="cls-13" width="500" height="750"/></clipPath><linearGradient id="linear-gradient" x1="993.36" y1="881.31" x2="993.36" y2="-378.42" gradientTransform="translate(-721 854) scale(1 -1)" gradientUnits="userSpaceOnUse"><stop offset="0" stop-color="#13bf00"/><stop offset="1" stop-color="#c1cc00"/></linearGradient><linearGradient id="linear-gradient-2" x1="1223.09" y1="881.31" x2="1223.09" y2="-378.42" xlink:href="#linear-gradient"/><linearGradient id="linear-gradient-3" x1="580.76" y1="881.31" x2="580.76" y2="-378.42" xlink:href="#linear-gradient"/><linearGradient id="linear-gradient-4" x1="725.26" y1="881.31" x2="725.26" y2="-378.42" xlink:href="#linear-gradient"/><radialGradient id="radial-gradient" cx="737.35" cy="347.3" fx="737.35" fy="347.3" r="532.4" gradientTransform="translate(-721 854) scale(1 -1)" gradientUnits="userSpaceOnUse"><stop offset="0" stop-color="#c1cc00"/><stop offset="1" stop-color="#13bf00"/></radialGradient><linearGradient id="linear-gradient-5" x1="851.12" y1="635.45" x2="851.12" y2="544.19" xlink:href="#linear-gradient"/><linearGradient id="linear-gradient-6" x1="867.77" y1="635.45" x2="867.77" y2="544.19" xlink:href="#linear-gradient"/><linearGradient id="linear-gradient-7" x1="821.24" y1="635.45" x2="821.24" y2="544.19" xlink:href="#linear-gradient"/><linearGradient id="linear-gradient-8" x1="798" y1="635.45" x2="798" y2="544.19" xlink:href="#linear-gradient"/><linearGradient id="linear-gradient-9" x1="851.12" y1="635.45" x2="851.12" y2="544.19" xlink:href="#linear-gradient"/><linearGradient id="linear-gradient-10" x1="821.24" y1="635.45" x2="821.24" y2="544.19" xlink:href="#linear-gradient"/><linearGradient id="linear-gradient-11" x1="831.7" y1="635.45" x2="831.7" y2="544.19" xlink:href="#linear-gradient"/><radialGradient id="radial-gradient-2" cx="832.58" cy="596.77" fx="832.58" fy="596.77" r="38.57" xlink:href="#radial-gradient"/></defs><g class="cls-11"><rect width="500" height="750"/><g class="cls-2"><g><path class="cls-17" d="m466.62,182.46C363.27,80.22,224.33,23.27,78.1,23.27v59.02c130.83,0,253.79,50.47,346.39,142.13l42.13-41.93v-.03Z"/><path class="cls-1" d="m400.41,968.86l42.4,41.93c111.97-110.78,169.8-262.47,159.87-418.85-8.11-127.61-61.5-252.91-159.87-350.23l-42.4,41.69c80.83,73.27,132.12,198.03,141.82,305.96,12.82,139.78-41.59,280.59-141.82,379.5h0Z"/><path class="cls-16" d="m54.02,141.58v-59.29c-140.5,0-281.27,53.32-388.52,159.46l42.13,41.69C-199.77,192.05-76.78,141.58,54.02,141.58h0Z"/><path class="cls-18" d="m330.57,352.8l69.84-69.37c-92.36-91.41-215.33-141.85-346.39-141.85v98.1c-107.8,0-205.66,43.21-276.28,113.09l-70.11-69.37c-191.28,189.48-191.28,496.22,0,685.42l70.11-69.1c70.62,69.91,168.48,113.09,276.28,113.09v98.1c131.07,0,254.03-50.47,346.39-142.09l-69.84-69.1c151.72-150.4,151.72-396.83,0-547v.07Zm-43.96,289.27c-4.27,20.08-16.38,39.08-36.23,52.61-59.05,40.26-183.37,111.29-247.92,143.14-54.54,26.9-118.48-7.6-118.48-68.42,0-28.32-.14-67.84-.27-109.73,0-10.41,0-20.96-.07-31.51-.1-54.31-.1-108.82.31-145.01.68-60.78,64.28-95.99,118.48-68.38,63.7,32.46,187.58,104.2,247.92,143.14,10.48,6.75,18.76,15.03,24.86,24.25,12.01,18.01,15.74,39.52,11.36,59.97l.03-.07Z"/></g><path class="cls-9" d="m424.46,216.61C332.57,127.64,211.95,78.15,83.63,76.76V28.83c141.38,1.39,274.18,55.8,375.12,153.66l-34.29,34.12Zm123.27,372.24c2.1,22.93,2.37,45.96.95,68.89,15.77,7.84,31.27,16.25,46.47,25.17,3.19-29.88,3.93-60.21,2-90.63-8.21-129-62.96-250.53-154.37-342.8l-34.33,33.75c74.39,70.01,128.86,189.17,139.31,305.59l-.03.03ZM-292.38,275.67C-200.42,186.86-79.76,137.44,48.49,136.05v-48.23c-141.21,1.39-274.01,55.87-375.12,153.93l34.26,33.92Zm-121.67,657.85c-63.97-89.24-98.47-195.58-98.47-307.21,0-140.4,54.54-272.51,153.69-372.61l-37.96-37.75c-108.85,109.66-168.72,255.18-168.72,410.33,0,131.75,43.18,256.5,122.82,358.3,8.85-17.37,18.42-34.43,28.63-51.08v.03ZM326.67,356.74l-3.97-3.9,69.84-69.37c-89.65-86.7-207.49-134.93-332.99-136.33v98.06h-5.53c-102.98,0-199.72,39.62-272.41,111.53l-3.87,3.83-70.08-69.37c-89.04,90.19-137.99,209.02-137.95,335.2,0,84.94,22.35,166.45,64.04,238.15,18.38-23.54,38.26-46.03,59.5-67.33,56.04-56.04,120.52-102.34,190.39-137.51,0,0,.07-.07.1-.07,0-10.41,0-20.96-.07-31.51-.1-54.31-.1-108.82.31-145.01.68-60.78,64.28-95.99,118.48-68.38,63.7,32.46,187.58,104.2,247.92,143.14,10.48,6.75,18.76,15.03,24.86,24.25,55.6,4.34,110.38,14.96,163.26,31.48-3.15-97.42-42.5-188.22-111.87-256.84l.03-.03Z"/><path class="cls-5" d="m250.38,727.86c-59.05,40.23-183.37,111.29-247.92,143.14-54.54,26.9-118.14-7.6-118.48-68.42-.24-35.75-.34-89.28-.34-142.87v-31.58c0,10.55,0,21.1.07,31.51.1,41.89.24,81.41.27,109.73,0,60.82,63.94,95.32,118.48,68.42,64.55-31.85,188.87-102.88,247.92-143.14,19.84-13.53,31.95-32.53,36.23-52.61,6.72,30.87-5.56,64.92-36.23,85.78v.03Z"/></g><g><g><g><path class="cls-10" d="m144.2,233.75c-7.49-7.41-17.55-11.53-28.14-11.53v4.28c9.48,0,18.38,3.66,25.09,10.3l3.05-3.04h0Z"/><path class="cls-6" d="m139.4,290.71l3.07,3.04c8.11-8.03,12.3-19.01,11.58-30.34-.59-9.24-4.45-18.32-11.58-25.37l-3.07,3.02c5.86,5.31,9.57,14.34,10.27,22.16.93,10.13-3.01,20.33-10.27,27.49h0Z"/><path class="cls-14" d="m114.31,230.79v-4.3c-10.18,0-20.37,3.86-28.14,11.55l3.05,3.02c6.71-6.62,15.62-10.28,25.09-10.28h0Z"/><path class="cls-19" d="m84.97,238.9l-3.32-3.3c-16.83,16.65-16.83,43.93,0,60.59l3.32-3.3c-15.07-14.91-15.07-39.08,0-53.99h0Z"/><path class="cls-15" d="m116.05,305.28v4.3c10.18,0,20.37-3.86,28.14-11.55l-3.05-3.02c-6.71,6.62-15.62,10.28-25.09,10.28h0Z"/><path class="cls-8" d="m89.22,290.71l-3.05,3.04c7.77,7.69,17.97,11.53,28.14,11.53v-4.28c-9.48,0-18.38-3.66-25.09-10.3h0Z"/><path class="cls-7" d="m134.34,246.09l5.06-5.02c-6.69-6.62-15.6-10.28-25.09-10.28v7.11c-7.81,0-14.9,3.13-20.01,8.19l-5.08-5.02c-13.86,13.73-13.86,35.95,0,49.65l5.08-5.01c5.12,5.06,12.2,8.19,20.01,8.19v7.11c9.49,0,18.4-3.66,25.09-10.29l-5.06-5.01c10.99-10.9,10.99-28.75,0-39.62h0Zm-3.18,20.96c-.31,1.45-1.19,2.83-2.62,3.81-4.28,2.92-13.28,8.06-17.96,10.37-3.95,1.95-8.58-.55-8.58-4.96,0-2.05,0-4.91-.02-7.95,0-.75,0-1.52,0-2.28,0-3.93,0-7.88.02-10.5.05-4.4,4.66-6.95,8.58-4.95,4.61,2.35,13.59,7.55,17.96,10.37.76.49,1.36,1.09,1.8,1.76.87,1.3,1.14,2.86.82,4.34h0Z"/></g><path class="cls-12" d="m141.14,236.22c-6.66-6.45-15.39-10.03-24.69-10.13v-3.47c10.24.1,19.86,4.04,27.17,11.13l-2.48,2.47Zm8.93,26.96c.15,1.66.17,3.33.07,4.99,1.14.57,2.27,1.18,3.37,1.82.23-2.16.29-4.36.14-6.57-.59-9.34-4.56-18.15-11.18-24.83l-2.49,2.44c5.39,5.07,9.33,13.7,10.09,22.14h0Zm-60.86-22.68c6.66-6.43,15.4-10.01,24.69-10.11v-3.49c-10.23.1-19.85,4.05-27.17,11.15l2.48,2.46Zm-8.81,47.65c-4.63-6.46-7.13-14.17-7.13-22.25,0-10.17,3.95-19.74,11.13-26.99l-2.75-2.73c-7.89,7.94-12.22,18.49-12.22,29.72,0,9.54,3.13,18.58,8.9,25.96.64-1.26,1.33-2.49,2.07-3.7h0Zm53.66-41.78l-.29-.28,5.06-5.02c-6.49-6.28-15.03-9.77-24.12-9.88v7.1h-.4c-7.46,0-14.47,2.87-19.73,8.08l-.28.28-5.08-5.02c-6.45,6.53-10,15.14-9.99,24.28,0,6.15,1.62,12.06,4.64,17.25,1.33-1.71,2.77-3.33,4.31-4.88,4.06-4.06,8.73-7.41,13.79-9.96,0,0,0,0,0,0,0-.75,0-1.52,0-2.28,0-3.93,0-7.88.02-10.5.05-4.4,4.66-6.95,8.58-4.95,4.61,2.35,13.59,7.55,17.96,10.37.76.49,1.36,1.09,1.8,1.76,4.03.31,8,1.08,11.83,2.28-.23-7.06-3.08-13.63-8.1-18.61h0Z"/><path class="cls-5" d="m128.53,273.26c-4.28,2.91-13.28,8.06-17.96,10.37-3.95,1.95-8.56-.55-8.58-4.96-.02-2.59-.02-6.47-.02-10.35v-2.29c0,.76,0,1.53,0,2.28,0,3.03.02,5.9.02,7.95,0,4.41,4.63,6.9,8.58,4.96,4.68-2.31,13.68-7.45,17.96-10.37,1.44-.98,2.31-2.36,2.62-3.81.49,2.24-.4,4.7-2.62,6.21h0Z"/></g><path class="cls-3" d="m182.74,271.23v-10.29h-10.33l-4.79-5.51v-6.19l4.79-5.48h2.7v9.75h10.98l4.62,5.5v6.73l-4.77,5.48h-3.2,0Zm-15.12-8.23h7.95v3.27h5.9v4.97h-9.84l-4.01-5.48v-2.75h0Zm8.75-14.28v-4.95h9.56l4.14,4.78v2.92h-7.32v-2.75h-6.37Zm25.39,17.03h5.26v5.48h-8.42l-4.79-5.48v-11.01h-1.58v-5.48h1.58v-2.38l7.95-3.1v21.98h0Zm1.26-11.01v-5.48h4.28v5.48h-4.28Zm6.3,16.49v-21.98h7.95v21.98h-7.95Zm12.62-16.49h-3.38v-2.4l2.66-3.08h4.82l3.87,5.13v5.69h-7.97v-5.34Zm17.48,16.49h-3.18l-4.77-5.48v-11.01l4.77-5.48h3.18v21.98Zm1.26-8.82v-3.83h4.19v-3.85h-4.19v-5.48h6.75l4.77,5.48v7.68h-11.52,0Zm0,8.82v-5.13h10.69v2.38l-2.38,2.75h-8.32Zm25.5-12.79v3.81h-4.1v3.85h4.1v2.42l-2.38,2.71h-6.08l-3.2-3.62v-5.5l3.2-3.66h8.46Zm1.26,12.79v-16.49h-11.32v-2.73l2.39-2.75h11.93l4.77,5.48v16.49h-7.77,0Zm10.89,0v-21.98h7.97v21.98h-7.97Zm12.47-16.49h-3.24v-2.59l2.5-2.9h6.16l2.56,2.94v19.04h-7.97v-16.49Zm12.47,0h-3.24v-2.55l2.45-2.94h4.86l3.89,4.51v17.47h-7.95v-16.49h0Zm11.05,16.49v-27.46h7.95v27.46h-7.95Zm9.21-21.98v-5.48h9.09l4.79,5.48v8.24l-3.67,4.22-.25-.58-7.47,1.14.29.72h-2.77v-5.32h5.98v-8.42h-5.98,0Zm14.69,21.98h-8.49l-3.42-8.24h6.32l1.12-1.28,4.48,9.52h0Zm13.21-12.79v3.81h-4.1v3.85h4.1v2.42l-2.38,2.71h-6.08l-3.2-3.62v-5.5l3.2-3.66h8.46Zm1.26,12.79v-16.49h-11.32v-2.73l2.39-2.75h11.93l4.77,5.48v16.49h-7.77Zm18.41-5.13h3.83v2.96l-1.89,2.17h-5.6l-4.3-4.95v-12.09l4.3-4.95h7.49v5.48h-3.83v11.36h0Zm13.05-25.23v30.36h-7.95v-30.36h7.95Zm14.34,17.57v3.81h-4.1v3.85h4.1v2.42l-2.38,2.71h-6.08l-3.2-3.62v-5.5l3.2-3.66h8.46Zm1.26,12.79v-16.49h-11.32v-2.73l2.39-2.75h11.93l4.77,5.48v16.49h-7.77Zm10.62,0v-21.98h7.95v21.98h-7.95Zm12.62-16.49h-3.38v-2.4l2.66-3.08h4.82l3.87,5.13v5.69h-7.97v-5.34Zm-252.55,36.11v-9.64h-3.28v-1.37h7.92v1.37h-3.28v9.64h-1.35Zm5.66,0v-8.34h1.26v2.27l-.12-.57c.2-.58.54-1.02,1.01-1.32s1.06-.46,1.75-.46v1.46c-.05,0-.11-.01-.16-.01h-.14c-.7,0-1.26.24-1.67.72-.41.48-.62,1.18-.62,2.09v4.15h-1.31Zm8.44.09c-.72,0-1.37-.18-1.94-.55s-1.02-.87-1.35-1.52c-.33-.64-.49-1.38-.49-2.19s.16-1.56.49-2.19c.33-.63.77-1.14,1.34-1.5.57-.37,1.21-.55,1.94-.55s1.37.18,1.94.54,1.02.86,1.34,1.5c.32.64.49,1.37.49,2.2s-.16,1.56-.49,2.2-.77,1.14-1.34,1.51c-.57.37-1.22.55-1.94.55h0Zm0-1.32c.46,0,.88-.12,1.25-.36s.66-.58.87-1.03c.21-.44.31-.96.31-1.55s-.11-1.12-.31-1.55c-.21-.43-.5-.77-.87-1.01-.37-.24-.79-.36-1.25-.36s-.88.12-1.25.36c-.36.24-.66.58-.87,1.01-.22.43-.33.95-.33,1.55s.11,1.1.33,1.55c.22.45.51.79.87,1.03s.78.36,1.25.36Zm8.36,1.32c-.62,0-1.16-.13-1.63-.39s-.84-.66-1.09-1.2c-.26-.54-.39-1.22-.39-2.04v-4.8h1.31v4.62c0,.82.17,1.43.51,1.84.34.41.82.61,1.44.61.46,0,.85-.11,1.19-.32s.6-.53.78-.94.27-.91.27-1.5v-4.31h1.31v8.34h-1.25v-2.25l.2.6c-.24.56-.59.99-1.07,1.29-.47.3-1.01.46-1.6.46h0Zm7.84-.09l-3.17-8.34h1.37l2.82,7.55h-.66l2.87-7.55h1.29l-3.17,8.34h-1.34,0Zm8.7.09c-.77,0-1.46-.18-2.04-.55s-1.04-.87-1.37-1.51c-.32-.64-.49-1.37-.49-2.2s.16-1.56.47-2.2c.31-.64.75-1.14,1.3-1.5s1.17-.54,1.87-.54,1.32.18,1.86.54.96.86,1.27,1.5c.3.64.46,1.4.46,2.26,0,.06,0,.14,0,.22,0,.08-.01.16-.02.24h-6.17v-1.09h5.48l-.53.38c0-.54-.09-1.01-.29-1.43s-.48-.75-.83-.98-.76-.35-1.22-.35-.86.12-1.22.35-.63.57-.84.99-.3.91-.3,1.45v.25c0,.56.11,1.05.33,1.49s.54.77.94,1.01.86.36,1.38.36c.43,0,.82-.08,1.17-.25s.66-.42.92-.75l.72.98c-.33.44-.74.78-1.22,1.01-.49.23-1.03.35-1.63.35h0Zm4.17-.1v-.98l4.65-6.64.26.52h-4.83v-1.24h5.88v.99l-4.65,6.62-.3-.52h5.06v1.24h-6.08Zm10.96,0v-11.67h1.31v11.67h-1.31Zm6.77.09c-.77,0-1.46-.18-2.04-.55s-1.04-.87-1.37-1.51c-.32-.64-.49-1.37-.49-2.2s.16-1.56.47-2.2c.31-.64.75-1.14,1.3-1.5s1.17-.54,1.87-.54,1.32.18,1.86.54.96.86,1.27,1.5c.3.64.46,1.4.46,2.26,0,.06,0,.14,0,.22,0,.08-.01.16-.02.24h-6.17v-1.09h5.48l-.53.38c0-.54-.09-1.01-.29-1.43s-.48-.75-.83-.98-.76-.35-1.22-.35-.86.12-1.22.35-.63.57-.84.99-.3.91-.3,1.45v.25c0,.56.11,1.05.33,1.49s.54.77.94,1.01.86.36,1.38.36c.43,0,.82-.08,1.17-.25s.66-.42.92-.75l.72.98c-.33.44-.74.78-1.22,1.01-.49.23-1.03.35-1.63.35h0Zm6.95,0c-.6,0-1.17-.09-1.72-.28-.54-.19-.97-.42-1.28-.69l.55-1.2c.31.24.69.44,1.15.61.46.17.92.25,1.4.25.61,0,1.05-.1,1.32-.3.27-.2.4-.48.4-.83,0-.26-.08-.47-.25-.61s-.38-.26-.65-.33c-.27-.07-.57-.14-.9-.2s-.66-.13-.99-.22c-.33-.09-.63-.21-.9-.38-.27-.16-.49-.39-.66-.68s-.25-.67-.25-1.16.12-.94.37-1.32c.25-.38.59-.67,1.05-.87s.99-.31,1.61-.31c.47,0,.96.07,1.44.2.49.13.89.32,1.2.56l-.56,1.2c-.33-.25-.67-.43-1.03-.52s-.71-.14-1.07-.14c-.57,0-1,.11-1.29.32s-.42.49-.42.83c0,.28.08.5.25.65s.39.27.66.35c.27.08.57.15.9.21.33.06.66.13.99.22.33.09.63.21.9.37.27.16.49.38.66.66s.25.66.25,1.13c0,.5-.13.94-.38,1.3s-.62.65-1.08.86-1.02.31-1.67.31h0Zm16.98-8.51c.58,0,1.1.13,1.55.39s.8.66,1.05,1.2.38,1.21.38,2.03v4.8h-1.31v-4.62c0-.81-.16-1.42-.49-1.83-.33-.41-.79-.61-1.38-.61-.44,0-.82.11-1.15.31-.33.21-.58.52-.76.93-.18.41-.27.92-.27,1.53v4.3h-1.31v-4.62c0-.81-.16-1.42-.49-1.83s-.79-.61-1.39-.61c-.43,0-.81.11-1.14.31-.33.21-.58.52-.77.93-.18.41-.27.92-.27,1.53v4.3h-1.31v-8.34h1.26v2.22l-.21-.57c.23-.55.58-.97,1.05-1.28s1.03-.46,1.66-.46c.69,0,1.29.2,1.79.59s.83.99.99,1.79l-.53-.25c.22-.64.6-1.15,1.15-1.54s1.18-.58,1.91-.58h0Zm8.34,8.51c-.78,0-1.46-.18-2.04-.55s-1.04-.87-1.37-1.51c-.32-.64-.49-1.37-.49-2.2s.16-1.56.47-2.2c.31-.64.75-1.14,1.3-1.5s1.17-.54,1.87-.54,1.32.18,1.86.54.96.86,1.27,1.5.46,1.4.46,2.26c0,.06,0,.14,0,.22,0,.08-.01.16-.02.24h-6.17v-1.09h5.48l-.53.38c0-.54-.09-1.01-.29-1.43s-.48-.75-.83-.98-.76-.35-1.22-.35-.86.12-1.22.35-.63.57-.84.99-.3.91-.3,1.45v.25c0,.56.11,1.05.34,1.49s.54.77.94,1.01.86.36,1.38.36c.43,0,.82-.08,1.17-.25s.66-.42.92-.75l.72.98c-.33.44-.74.78-1.22,1.01-.49.23-1.03.35-1.63.35h0Zm5.53-10.04c-.26,0-.47-.09-.64-.28-.17-.19-.25-.42-.25-.69s.08-.52.25-.71.38-.28.64-.28.47.09.64.28c.17.18.25.41.25.69s-.08.52-.25.72-.38.29-.64.29h0Zm-.66,9.94v-8.34h1.31v8.34h-1.31Zm3.54,0v-11.67h1.31v11.67h-1.31Zm3.54,0v-11.67h1.31v11.67h-1.31Zm6.77.09c-.77,0-1.46-.18-2.04-.55s-1.04-.87-1.37-1.51c-.32-.64-.49-1.37-.49-2.2s.16-1.56.47-2.2c.31-.64.75-1.14,1.3-1.5.55-.36,1.17-.54,1.87-.54s1.32.18,1.86.54.96.86,1.27,1.5c.3.64.46,1.4.46,2.26,0,.06,0,.14,0,.22,0,.08-.01.16-.02.24h-6.17v-1.09h5.48l-.53.38c0-.54-.09-1.01-.29-1.43s-.48-.75-.83-.98-.76-.35-1.22-.35-.86.12-1.22.35c-.36.24-.63.57-.84.99s-.3.91-.3,1.45v.25c0,.56.11,1.05.33,1.49s.54.77.94,1.01.86.36,1.38.36c.43,0,.82-.08,1.17-.25s.66-.42.92-.75l.72.98c-.33.44-.74.78-1.22,1.01-.49.23-1.03.35-1.63.35h0Zm7.92,0c-.62,0-1.16-.13-1.63-.39-.47-.26-.84-.66-1.1-1.2-.26-.54-.39-1.22-.39-2.04v-4.8h1.31v4.62c0,.82.17,1.43.51,1.84.34.41.82.61,1.44.61.46,0,.85-.11,1.19-.32.34-.21.6-.53.78-.94s.27-.91.27-1.5v-4.31h1.31v8.34h-1.25v-2.25l.2.6c-.24.56-.59.99-1.07,1.29-.47.3-1.01.46-1.6.46h0Zm5.94-.09v-8.34h1.26v2.27l-.12-.57c.2-.58.54-1.02,1.01-1.32s1.06-.46,1.75-.46v1.46c-.05,0-.11-.01-.16-.01h-.14c-.7,0-1.26.24-1.67.72-.41.48-.62,1.18-.62,2.09v4.15h-1.31Zm7.41.09c-.6,0-1.17-.09-1.72-.28-.54-.19-.97-.42-1.28-.69l.55-1.2c.31.24.69.44,1.15.61.46.17.92.25,1.4.25.61,0,1.05-.1,1.32-.3.27-.2.4-.48.4-.83,0-.26-.08-.47-.25-.61s-.38-.26-.65-.33c-.27-.07-.57-.14-.9-.2s-.66-.13-.99-.22c-.33-.09-.63-.21-.9-.38-.27-.16-.49-.39-.66-.68s-.25-.67-.25-1.16.12-.94.37-1.32c.25-.38.59-.67,1.05-.87s.99-.31,1.61-.31c.47,0,.96.07,1.44.2.49.13.89.32,1.2.56l-.56,1.2c-.33-.25-.67-.43-1.03-.52s-.71-.14-1.07-.14c-.57,0-1,.11-1.29.32s-.42.49-.42.83c0,.28.08.5.25.65s.39.27.66.35c.27.08.57.15.9.21.33.06.66.13.99.22.33.09.63.21.9.37.27.16.49.38.66.66s.25.66.25,1.13c0,.5-.13.94-.38,1.3s-.62.65-1.08.86-1.02.31-1.67.31h0Zm6.87-7.18v-1.24h4.62v1.24h-4.62Zm1.23,7.09v-9.08c0-.82.21-1.47.62-1.96.42-.49,1-.73,1.77-.73.28,0,.56.04.81.12.26.08.48.2.66.37l-.4,1.15c-.14-.13-.29-.22-.46-.29-.17-.07-.36-.1-.55-.1-.38,0-.68.12-.87.37-.2.25-.3.61-.3,1.09v1.12l.03.69v7.25h-1.31,0Zm5.29-9.94c-.26,0-.47-.09-.64-.28-.17-.19-.25-.42-.25-.69s.08-.52.25-.71.38-.28.64-.28.47.09.64.28c.17.18.25.41.25.69s-.08.52-.25.72-.38.29-.64.29h0Zm-.66,9.94v-8.34h1.31v8.34h-1.31Zm3.54,0v-11.67h1.31v11.67h-1.31Zm12.61-8.42c.58,0,1.1.13,1.55.39.45.26.8.66,1.05,1.2s.38,1.21.38,2.03v4.8h-1.31v-4.62c0-.81-.16-1.42-.49-1.83-.33-.41-.79-.61-1.38-.61-.44,0-.82.11-1.15.31-.33.21-.58.52-.76.93-.18.41-.27.92-.27,1.53v4.3h-1.31v-4.62c0-.81-.16-1.42-.49-1.83s-.79-.61-1.39-.61c-.43,0-.81.11-1.14.31-.33.21-.58.52-.77.93-.18.41-.28.92-.28,1.53v4.3h-1.31v-8.34h1.26v2.22l-.2-.57c.23-.55.58-.97,1.05-1.28s1.03-.46,1.66-.46c.69,0,1.29.2,1.79.59.5.39.83.99.99,1.79l-.53-.25c.22-.64.6-1.15,1.15-1.54s1.18-.58,1.91-.58h0Zm7.19,8.51c-.6,0-1.17-.09-1.72-.28s-.97-.42-1.28-.69l.55-1.2c.31.24.69.44,1.15.61.46.17.92.25,1.4.25.61,0,1.05-.1,1.32-.3.27-.2.4-.48.4-.83,0-.26-.08-.47-.25-.61s-.38-.26-.65-.33c-.27-.07-.57-.14-.9-.2s-.66-.13-.99-.22c-.33-.09-.63-.21-.9-.38-.27-.16-.49-.39-.66-.68s-.25-.67-.25-1.16.12-.94.37-1.32c.25-.38.59-.67,1.05-.87s.99-.31,1.61-.31c.47,0,.96.07,1.44.2s.89.32,1.2.56l-.56,1.2c-.33-.25-.67-.43-1.02-.52-.36-.09-.71-.14-1.07-.14-.57,0-1,.11-1.29.32s-.43.49-.43.83c0,.28.08.5.25.65.17.15.39.27.66.35.27.08.57.15.9.21.33.06.66.13.99.22.33.09.63.21.9.37.27.16.49.38.66.66s.25.66.25,1.13c0,.5-.13.94-.38,1.3s-.62.65-1.08.86-1.02.31-1.67.31h0Zm11.14,0c-.77,0-1.46-.18-2.04-.55-.59-.37-1.04-.87-1.37-1.51-.32-.64-.49-1.37-.49-2.2s.16-1.56.47-2.2.75-1.14,1.3-1.5c.55-.36,1.17-.54,1.87-.54s1.32.18,1.86.54.96.86,1.27,1.5.46,1.4.46,2.26c0,.06,0,.14,0,.22,0,.08-.01.16-.02.24h-6.17v-1.09h5.48l-.53.38c0-.54-.09-1.01-.29-1.43s-.48-.75-.83-.98-.76-.35-1.22-.35-.86.12-1.22.35c-.36.24-.63.57-.84.99-.2.43-.3.91-.3,1.45v.25c0,.56.11,1.05.33,1.49s.54.77.94,1.01.86.36,1.38.36c.43,0,.82-.08,1.17-.25s.66-.42.92-.75l.72.98c-.33.44-.74.78-1.22,1.01-.49.23-1.03.35-1.63.35h0Zm3.83-7.19v-1.24h4.62v1.24h-4.62Zm3.53,7.19c-.73,0-1.29-.23-1.7-.68s-.6-1.1-.6-1.93v-7.65h1.31v7.58c0,.45.1.8.29,1.04.2.24.48.36.84.36.41,0,.75-.13,1.03-.39l.41,1.09c-.2.2-.44.35-.72.44s-.57.14-.87.14h0Zm8.39,0c-.6,0-1.17-.09-1.72-.28s-.97-.42-1.28-.69l.55-1.2c.31.24.69.44,1.15.61.46.17.92.25,1.4.25.61,0,1.05-.1,1.32-.3s.4-.48.4-.83c0-.26-.08-.47-.25-.61s-.38-.26-.65-.33c-.27-.07-.57-.14-.9-.2s-.66-.13-.99-.22c-.33-.09-.63-.21-.9-.38-.27-.16-.49-.39-.66-.68s-.25-.67-.25-1.16.12-.94.37-1.32c.25-.38.59-.67,1.05-.87s.99-.31,1.61-.31c.47,0,.96.07,1.44.2.49.13.89.32,1.2.56l-.56,1.2c-.33-.25-.67-.43-1.03-.52-.36-.09-.71-.14-1.07-.14-.57,0-1,.11-1.29.32s-.42.49-.42.83c0,.28.08.5.25.65.17.15.39.27.66.35.27.08.57.15.9.21.33.06.66.13.99.22.33.09.63.21.9.37.27.16.49.38.66.66.17.28.25.66.25,1.13,0,.5-.13.94-.38,1.3s-.62.65-1.08.86-1.02.31-1.67.31h0Zm7.73,0c-.77,0-1.46-.18-2.04-.55-.59-.37-1.04-.87-1.37-1.51-.32-.64-.49-1.37-.49-2.2s.16-1.56.47-2.2.75-1.14,1.3-1.5c.55-.36,1.17-.54,1.87-.54s1.32.18,1.86.54.96.86,1.27,1.5.46,1.4.46,2.26c0,.06,0,.14,0,.22,0,.08-.01.16-.02.24h-6.17v-1.09h5.48l-.53.38c0-.54-.09-1.01-.29-1.43s-.48-.75-.83-.98-.76-.35-1.22-.35-.86.12-1.22.35c-.36.24-.63.57-.84.99-.2.43-.3.91-.3,1.45v.25c0,.56.11,1.05.33,1.49s.54.77.94,1.01.86.36,1.38.36c.43,0,.82-.08,1.17-.25s.66-.42.92-.75l.72.98c-.33.44-.74.78-1.22,1.01-.49.23-1.03.35-1.63.35h0Zm-1.3-9.65l1.86-2.04h1.67l-2.3,2.04h-1.23Zm6.17,9.55v-8.34h1.26v2.27l-.12-.57c.2-.58.54-1.02,1.01-1.32s1.06-.46,1.75-.46v1.46c-.05,0-.11-.01-.16-.01h-.14c-.7,0-1.26.24-1.67.72-.41.48-.62,1.18-.62,2.09v4.15h-1.31Zm5.99-9.94c-.26,0-.47-.09-.64-.28-.17-.19-.25-.42-.25-.69s.08-.52.25-.71c.17-.19.38-.28.64-.28s.47.09.64.28c.17.18.25.41.25.69s-.08.52-.25.72c-.16.19-.38.29-.64.29h0Zm-.66,9.94v-8.34h1.31v8.34h-1.31Zm6.77.09c-.77,0-1.46-.18-2.04-.55-.59-.37-1.04-.87-1.37-1.51-.32-.64-.49-1.37-.49-2.2s.16-1.56.47-2.2.75-1.14,1.3-1.5c.55-.36,1.17-.54,1.87-.54s1.32.18,1.86.54.96.86,1.27,1.5.46,1.4.46,2.26c0,.06,0,.14,0,.22,0,.08-.01.16-.02.24h-6.17v-1.09h5.48l-.53.38c0-.54-.09-1.01-.29-1.43s-.48-.75-.83-.98-.76-.35-1.22-.35-.86.12-1.22.35c-.36.24-.63.57-.84.99-.2.43-.3.91-.3,1.45v.25c0,.56.11,1.05.33,1.49s.54.77.94,1.01.86.36,1.38.36c.43,0,.82-.08,1.17-.25s.66-.42.92-.75l.72.98c-.33.44-.74.78-1.22,1.01-.49.23-1.03.35-1.63.35h0Zm6.95,0c-.6,0-1.17-.09-1.72-.28s-.97-.42-1.28-.69l.55-1.2c.31.24.69.44,1.15.61.46.17.92.25,1.4.25.61,0,1.05-.1,1.32-.3.27-.2.4-.48.4-.83,0-.26-.08-.47-.25-.61s-.38-.26-.65-.33c-.27-.07-.57-.14-.9-.2s-.66-.13-.99-.22c-.33-.09-.63-.21-.9-.38-.27-.16-.49-.39-.66-.68s-.25-.67-.25-1.16.12-.94.37-1.32c.25-.38.59-.67,1.05-.87s.99-.31,1.61-.31c.47,0,.96.07,1.44.2s.89.32,1.2.56l-.56,1.2c-.33-.25-.67-.43-1.02-.52-.36-.09-.71-.14-1.07-.14-.57,0-1,.11-1.29.32s-.43.49-.43.83c0,.28.08.5.25.65.17.15.39.27.66.35.27.08.57.15.9.21.33.06.66.13.99.22.33.09.63.21.9.37.27.16.49.38.66.66s.25.66.25,1.13c0,.5-.13.94-.38,1.3s-.62.65-1.08.86-1.02.31-1.67.31h0Zm10-.09v-9.64h-3.28v-1.37h7.92v1.37h-3.28v9.64h-1.35Zm8.62,0l-4.21-11.01h1.48l3.87,10.16h-.85l3.9-10.16h1.37l-4.2,11.01h-1.35Z"/></g><text class="cls-4" transform="translate(156.64 401.03)"><tspan x="0" y="0">AUCUNE </tspan><tspan x="-105.28" y="48">IMAGE DISPONIBLE</tspan></text></g></svg>