<?xml version="1.0" encoding="UTF-8"?><svg id="Layer_1" xmlns="http://www.w3.org/2000/svg" xmlns:xlink="http://www.w3.org/1999/xlink" viewBox="0 0 900 600"><defs><style>.cls-1{fill:url(#linear-gradient-2);}.cls-2,.cls-3{fill:#fff;}.cls-4{fill:#b2cc54;}.cls-5{fill:url(#linear-gradient-6);}.cls-6{opacity:.29;}.cls-7{fill:url(#linear-gradient-11);}.cls-8{fill:url(#linear-gradient-10);}.cls-9{fill:url(#radial-gradient);}.cls-3{font-family:MontserratRoman-Bold, Montserrat;font-size:40px;font-variation-settings:'wght' 700;font-weight:700;letter-spacing:-.02em;}.cls-10{fill:url(#linear-gradient-5);}.cls-11{clip-path:url(#clippath);}.cls-12{fill:url(#radial-gradient-2);}.cls-13{fill:none;}.cls-14{fill:url(#linear-gradient-7);}.cls-15{fill:url(#linear-gradient-9);}.cls-16{fill:url(#linear-gradient-3);}.cls-17{fill:url(#linear-gradient);}.cls-18{fill:url(#linear-gradient-4);}.cls-19{fill:url(#linear-gradient-8);}.cls-20{fill:url(#linear-gradient-12);}</style><clipPath id="clippath"><rect class="cls-13" width="900" height="600"/></clipPath><linearGradient id="linear-gradient" x1="1339.11" y1="930.18" x2="1339.11" y2="-231.27" gradientTransform="translate(-721 917.65) scale(1 -1)" gradientUnits="userSpaceOnUse"><stop offset="0" stop-color="#13bf00"/><stop offset="1" stop-color="#c1cc00"/></linearGradient><linearGradient id="linear-gradient-2" x1="1550.92" x2="1550.92" y2="-231.27" xlink:href="#linear-gradient"/><linearGradient id="linear-gradient-3" x1="958.7" y1="930.18" x2="958.7" y2="-231.27" xlink:href="#linear-gradient"/><linearGradient id="linear-gradient-4" x1="662.96" y1="930.18" x2="662.96" y2="-231.27" xlink:href="#linear-gradient"/><linearGradient id="linear-gradient-5" x1="1091.93" y1="930.18" x2="1091.93" y2="-231.27" xlink:href="#linear-gradient"/><radialGradient id="radial-gradient" cx="1103.08" cy="437.84" fx="1103.08" fy="437.84" r="490.87" gradientTransform="translate(-721 917.65) scale(1 -1)" gradientUnits="userSpaceOnUse"><stop offset="0" stop-color="#c1cc00"/><stop offset="1" stop-color="#13bf00"/></radialGradient><linearGradient id="linear-gradient-6" x1="971.83" y1="789.16" x2="971.83" y2="637.54" xlink:href="#linear-gradient"/><linearGradient id="linear-gradient-7" x1="999.48" y1="789.16" x2="999.48" y2="637.54" xlink:href="#linear-gradient"/><linearGradient id="linear-gradient-8" x1="922.17" y1="789.16" x2="922.17" y2="637.54" xlink:href="#linear-gradient"/><linearGradient id="linear-gradient-9" x1="883.56" y1="789.16" x2="883.56" y2="637.54" xlink:href="#linear-gradient"/><linearGradient id="linear-gradient-10" x1="971.83" y1="789.16" x2="971.83" y2="637.54" xlink:href="#linear-gradient"/><linearGradient id="linear-gradient-11" x1="922.17" y1="789.16" x2="922.17" y2="637.54" xlink:href="#linear-gradient"/><linearGradient id="linear-gradient-12" x1="939.56" y1="789.16" x2="939.56" y2="637.54" xlink:href="#linear-gradient"/><radialGradient id="radial-gradient-2" cx="941.01" cy="724.88" fx="941.01" fy="724.88" r="64.08" xlink:href="#radial-gradient"/></defs><g class="cls-11"><rect y="0" width="900" height="600"/><g class="cls-6"><g><path class="cls-17" d="m797.22,180.87c-95.29-94.26-223.39-146.77-358.21-146.77v54.42c120.62,0,233.99,46.54,319.37,131.04l38.84-38.65v-.03Z"/><path class="cls-1" d="m736.17,905.93l39.09,38.65c103.24-102.14,156.56-242,147.4-386.17-7.47-117.65-56.7-233.18-147.4-322.91l-39.09,38.44c74.53,67.55,121.81,182.58,130.76,282.09,11.82,128.88-38.34,258.7-130.76,349.9h0Z"/><path class="cls-16" d="m416.8,143.18v-54.67c-129.54,0-259.33,49.16-358.21,147.02l38.84,38.44c85.38-84.25,198.78-130.79,319.37-130.79h0Z"/><path class="cls-18" d="m43.39,246.51L1.17,204.51c-214.2,211.94-214.2,559.18,0,771.13l42.22-42c-191.77-189.74-191.77-497.38,0-687.12h0Z"/><path class="cls-10" d="m671.78,337.93l64.39-63.96c-85.16-84.28-198.53-130.79-319.37-130.79v90.44c-99.39,0-189.62,39.84-254.73,104.27l-64.64-63.96c-176.35,174.7-176.35,457.51,0,631.96l64.64-63.71c65.11,64.46,155.34,104.27,254.73,104.27v90.44c120.84,0,234.21-46.54,319.37-131.01l-64.39-63.71c139.89-138.67,139.89-365.88,0-504.33v.06Zm-40.53,266.71c-3.94,18.51-15.11,36.03-33.4,48.51-54.45,37.12-169.07,102.61-228.58,131.98-50.29,24.8-109.24-7.01-109.24-63.08,0-26.11-.13-62.55-.25-101.17,0-9.6,0-19.33-.06-29.05-.09-50.07-.09-100.33.28-133.7.63-56.04,59.26-88.51,109.24-63.05,58.73,29.93,172.95,96.07,228.58,131.98,9.66,6.22,17.29,13.85,22.92,22.36,11.07,16.61,14.51,36.43,10.48,55.29l.03-.06Z"/></g><path class="cls-9" d="m758.35,212.36c-84.72-82.03-195.93-127.66-314.24-128.94v-44.19c130.35,1.28,252.79,51.45,345.86,141.67l-31.62,31.46Zm113.65,343.2c1.94,21.14,2.19,42.38.88,63.52,14.54,7.22,28.83,14.98,42.85,23.21,2.94-27.55,3.63-55.51,1.85-83.56-7.57-118.94-58.04-230.99-142.33-316.06l-31.65,31.12c68.58,64.55,118.81,174.42,128.44,281.75l-.03.03ZM97.43,266.81c84.78-81.88,196.03-127.44,314.27-128.72v-44.47c-130.19,1.28-252.63,51.51-345.86,141.92l31.59,31.27ZM-14.75,873.34c-58.98-82.28-90.79-180.33-90.79-283.25,0-129.44,50.29-251.26,141.7-343.55L1.17,211.73c-100.36,101.11-155.56,235.28-155.56,378.32,0,121.47,39.81,236.5,113.24,330.35,8.16-16.01,16.98-31.74,26.4-47.1v.03ZM668.18,341.55l-3.66-3.6,64.39-63.96c-82.66-79.94-191.3-124.41-307.02-125.69v90.41h-5.1c-94.95,0-184.14,36.53-251.16,102.83l-3.57,3.53-64.61-63.96C15.37,364.29-29.76,473.84-29.73,590.18c0,78.31,20.61,153.46,59.05,219.58,16.95-21.7,35.28-42.44,54.85-62.08,51.66-51.66,111.12-94.35,175.54-126.79,0,0,.06-.06.09-.06,0-9.6,0-19.33-.06-29.05-.09-50.07-.09-100.33.28-133.7.63-56.04,59.26-88.51,109.24-63.05,58.73,29.93,172.95,96.07,228.58,131.98,9.66,6.22,17.29,13.85,22.92,22.36,51.26,4,101.77,13.79,150.52,29.02-2.91-89.82-39.19-173.54-103.14-236.81l.03-.03Z"/><path class="cls-4" d="m597.85,683.72c-54.45,37.09-169.07,102.61-228.58,131.98-50.29,24.8-108.93-7.01-109.24-63.08-.22-32.96-.31-82.31-.31-131.73v-29.12c0,9.73,0,19.45.06,29.05.09,38.62.22,75.06.25,101.17,0,56.07,58.95,87.88,109.24,63.08,59.51-29.37,174.13-94.85,228.58-131.98,18.3-12.48,29.46-29.99,33.4-48.51,6.19,28.46-5.13,59.86-33.4,79.09v.03Z"/></g><g><g><g><path class="cls-5" d="m274.21,153.74c-12.44-12.3-29.16-19.16-46.76-19.16v7.1c15.75,0,30.55,6.07,41.69,17.11l5.07-5.05h0Z"/><path class="cls-14" d="m266.24,248.39l5.1,5.05c13.48-13.33,20.44-31.59,19.24-50.41-.98-15.36-7.4-30.44-19.24-42.15l-5.1,5.02c9.73,8.82,15.9,23.83,17.07,36.82,1.54,16.82-5.01,33.77-17.07,45.68h0Z"/><path class="cls-19" d="m224.55,148.82v-7.14c-16.91,0-33.85,6.42-46.76,19.19l5.07,5.02c11.15-11,25.95-17.07,41.69-17.07h0Z"/><path class="cls-15" d="m175.8,162.31l-5.51-5.48c-27.96,27.67-27.96,73,0,100.66l5.51-5.48c-25.03-24.77-25.03-64.93,0-89.7h0Z"/><path class="cls-8" d="m227.45,272.6v7.14c16.91,0,33.85-6.42,46.76-19.19l-5.07-5.02c-11.15,11-25.95,17.07-41.69,17.07h0Z"/><path class="cls-7" d="m182.86,248.39l-5.07,5.05c12.91,12.77,29.85,19.16,46.76,19.16v-7.1c-15.75,0-30.55-6.07-41.69-17.11h0Z"/><path class="cls-20" d="m257.83,174.24l8.41-8.35c-11.12-11-25.92-17.07-41.69-17.07v11.81c-12.97,0-24.75,5.2-33.25,13.61l-8.44-8.35c-23.02,22.81-23.02,59.72,0,82.5l8.44-8.32c8.5,8.41,20.28,13.61,33.25,13.61v11.81c15.78,0,30.57-6.07,41.69-17.1l-8.41-8.32c18.26-18.1,18.26-47.76,0-65.84h0Zm-5.29,34.82c-.51,2.42-1.97,4.7-4.36,6.33-7.11,4.85-22.07,13.39-29.84,17.23-6.56,3.24-14.26-.91-14.26-8.23,0-3.41-.02-8.17-.03-13.21,0-1.25,0-2.52,0-3.79-.01-6.54-.01-13.1.04-17.45.08-7.32,7.74-11.55,14.26-8.23,7.67,3.91,22.58,12.54,29.84,17.23,1.26.81,2.26,1.81,2.99,2.92,1.45,2.17,1.89,4.76,1.37,7.22h0Z"/></g><path class="cls-12" d="m269.13,157.85c-11.06-10.71-25.58-16.67-41.02-16.83v-5.77c17.02.17,33,6.72,45.15,18.49l-4.13,4.11Zm14.84,44.8c.25,2.76.29,5.53.11,8.29,1.9.94,3.76,1.96,5.59,3.03.38-3.6.47-7.25.24-10.91-.99-15.53-7.58-30.15-18.58-41.26l-4.13,4.06c8.95,8.43,15.51,22.77,16.77,36.78h0Zm-101.11-37.69c11.07-10.69,25.59-16.64,41.03-16.8v-5.81c-17,.17-32.98,6.72-45.15,18.53l4.12,4.08Zm-14.64,79.18c-7.7-10.74-11.85-23.54-11.85-36.98,0-16.9,6.56-32.8,18.5-44.85l-4.57-4.54c-13.1,13.2-20.31,30.71-20.31,49.39,0,15.86,5.2,30.87,14.78,43.12,1.07-2.09,2.22-4.14,3.45-6.15h0Zm89.15-69.42l-.48-.47,8.41-8.35c-10.79-10.44-24.97-16.24-40.08-16.41v11.8h-.67c-12.39,0-24.04,4.77-32.79,13.42l-.47.46-8.43-8.35c-10.72,10.86-16.61,25.16-16.6,40.34,0,10.22,2.69,20.03,7.71,28.66,2.21-2.83,4.61-5.54,7.16-8.1,6.74-6.74,14.51-12.32,22.92-16.55,0,0,0,0,.01,0,0-1.25,0-2.52,0-3.79-.01-6.54-.01-13.1.04-17.45.08-7.32,7.74-11.55,14.26-8.23,7.67,3.91,22.58,12.54,29.84,17.23,1.26.81,2.26,1.81,2.99,2.92,6.69.52,13.28,1.8,19.65,3.79-.38-11.73-5.12-22.65-13.46-30.91h0Z"/><path class="cls-4" d="m248.18,219.39c-7.11,4.84-22.07,13.39-29.84,17.23-6.56,3.24-14.22-.91-14.26-8.23-.03-4.3-.04-10.75-.04-17.2v-3.8c0,1.27,0,2.54,0,3.79.01,5.04.03,9.8.03,13.21,0,7.32,7.7,11.47,14.26,8.23,7.77-3.83,22.73-12.38,29.84-17.23,2.39-1.63,3.85-3.92,4.36-6.33.81,3.72-.67,7.81-4.36,10.32h0Z"/></g><path class="cls-2" d="m338.25,216.01v-17.09h-17.16l-7.95-9.15v-10.28l7.95-9.11h4.49v16.2h18.24l7.68,9.14v11.17l-7.92,9.11h-5.32,0Zm-25.12-13.68h13.22v5.43h9.81v8.25h-16.35l-6.67-9.11v-4.57h0Zm14.53-23.73v-8.22h15.88l6.88,7.94v4.85h-12.17v-4.57h-10.59Zm42.19,28.3h8.73v9.11h-14l-7.95-9.11v-18.29h-2.63v-9.11h2.63v-3.96l13.22-5.16v36.52h0Zm2.09-18.29v-9.11h7.12v9.11h-7.12Zm10.47,27.41v-36.52h13.22v36.52h-13.22Zm20.96-27.41h-5.62v-3.99l4.43-5.12h8.01l6.43,8.53v9.46h-13.25v-8.87Zm29.04,27.41h-5.29l-7.92-9.11v-18.29l7.92-9.11h5.29v36.52Zm2.09-14.65v-6.36h6.97v-6.4h-6.97v-9.11h11.21l7.92,9.11v12.76h-19.14,0Zm0,14.65v-8.53h17.76v3.96l-3.95,4.57h-13.82Zm42.37-21.25v6.33h-6.82v6.4h6.82v4.02l-3.95,4.5h-10.11l-5.32-6.02v-9.14l5.32-6.09h14.06Zm2.09,21.25v-27.41h-18.81v-4.54l3.98-4.57h19.82l7.92,9.11v27.41h-12.92,0Zm18.09,0v-36.52h13.25v36.52h-13.25Zm20.72-27.41h-5.38v-4.3l4.16-4.81h10.23l4.25,4.88v31.64h-13.25v-27.41Zm20.72,0h-5.38v-4.23l4.07-4.88h8.08l6.46,7.5v29.02h-13.22v-27.41h0Zm18.36,27.41v-45.63h13.22v45.63h-13.22Zm15.31-36.52v-9.11h15.1l7.95,9.11v13.68l-6.1,7.01-.42-.96-12.41,1.89.48,1.2h-4.61v-8.84h9.93v-14h-9.93,0Zm24.4,36.52h-14.11l-5.68-13.68h10.5l1.85-2.13,7.45,15.82h0Zm21.95-21.25v6.33h-6.82v6.4h6.82v4.02l-3.95,4.5h-10.11l-5.32-6.02v-9.14l5.32-6.09h14.06Zm2.09,21.25v-27.41h-18.81v-4.54l3.98-4.57h19.82l7.92,9.11v27.41h-12.92Zm30.59-8.53h6.37v4.92l-3.14,3.61h-9.3l-7.14-8.22v-20.08l7.14-8.22h12.44v9.11h-6.37v18.88h0Zm21.68-41.91v50.44h-13.22v-50.44h13.22Zm23.83,29.19v6.33h-6.82v6.4h6.82v4.02l-3.95,4.5h-10.11l-5.32-6.02v-9.14l5.32-6.09h14.06Zm2.09,21.25v-27.41h-18.81v-4.54l3.98-4.57h19.82l7.92,9.11v27.41h-12.92Zm17.64,0v-36.52h13.22v36.52h-13.22Zm20.96-27.41h-5.62v-3.99l4.43-5.12h8.01l6.43,8.53v9.46h-13.25v-8.87Zm-419.61,59.99v-16.02h-5.45v-2.27h13.16v2.27h-5.45v16.02h-2.25Zm9.41,0v-13.85h2.09v3.76l-.2-.94c.33-.96.89-1.69,1.68-2.2s1.76-.76,2.91-.76v2.43c-.09-.02-.18-.02-.26-.02h-.24c-1.17,0-2.09.4-2.77,1.2-.68.8-1.02,1.96-1.02,3.47v6.9h-2.18Zm14.02.16c-1.2,0-2.27-.31-3.22-.91s-1.69-1.45-2.24-2.52c-.55-1.07-.82-2.29-.82-3.65s.27-2.59.82-3.65c.55-1.05,1.29-1.89,2.23-2.49.94-.61,2.02-.91,3.23-.91s2.27.3,3.22.9,1.69,1.43,2.23,2.49c.54,1.06.81,2.28.81,3.66s-.27,2.6-.81,3.66-1.28,1.9-2.23,2.51c-.95.61-2.02.91-3.22.91h0Zm0-2.2c.77,0,1.47-.2,2.08-.6s1.09-.97,1.45-1.71c.35-.74.52-1.6.52-2.58s-.18-1.85-.52-2.58c-.35-.72-.83-1.29-1.45-1.69-.61-.4-1.31-.6-2.08-.6s-1.46.2-2.07.6c-.6.4-1.09.96-1.45,1.69-.36.72-.55,1.58-.55,2.58s.18,1.83.55,2.58c.36.74.85,1.31,1.45,1.71s1.29.6,2.07.6Zm13.89,2.2c-1.03,0-1.94-.22-2.71-.65s-1.39-1.1-1.82-2c-.43-.9-.65-2.02-.65-3.38v-7.97h2.18v7.68c0,1.36.29,2.38.85,3.06.57.68,1.37,1.02,2.4,1.02.76,0,1.42-.18,1.98-.53s.99-.88,1.29-1.57.45-1.52.45-2.49v-7.16h2.18v13.85h-2.07v-3.74l.34.99c-.4.92-.98,1.64-1.77,2.14-.79.51-1.67.76-2.66.76h0Zm13.02-.16l-5.27-13.85h2.27l4.68,12.55h-1.09l4.77-12.55h2.14l-5.27,13.85h-2.23,0Zm14.46.16c-1.29,0-2.42-.31-3.4-.91s-1.74-1.45-2.27-2.51c-.54-1.06-.81-2.28-.81-3.66s.26-2.6.78-3.66c.52-1.06,1.24-1.89,2.16-2.49s1.95-.9,3.1-.9,2.2.3,3.09.89,1.6,1.42,2.1,2.49c.51,1.07.76,2.32.76,3.75,0,.11,0,.22-.01.37,0,.14-.02.27-.03.39h-10.25v-1.8h9.11l-.89.63c.02-.89-.14-1.68-.48-2.38s-.79-1.24-1.38-1.63-1.26-.59-2.03-.59-1.43.2-2.02.59-1.05.94-1.39,1.65-.5,1.51-.5,2.42v.42c0,.92.18,1.75.56,2.47s.89,1.29,1.56,1.69,1.43.6,2.29.6c.71,0,1.36-.14,1.94-.42s1.09-.7,1.54-1.25l1.2,1.62c-.55.73-1.22,1.29-2.03,1.67-.81.38-1.71.58-2.71.58h.01Zm6.93-.16v-1.62l7.73-11.03.43.86h-8.02v-2.07h9.77v1.65l-7.73,11-.5-.86h8.41v2.07h-10.1Zm18.2,0v-19.39h2.18v19.39h-2.18Zm11.25.16c-1.29,0-2.42-.31-3.4-.91s-1.74-1.45-2.27-2.51c-.54-1.06-.81-2.28-.81-3.66s.26-2.6.78-3.66c.52-1.06,1.24-1.89,2.16-2.49s1.95-.9,3.1-.9,2.2.3,3.09.89,1.6,1.42,2.1,2.49c.51,1.07.76,2.32.76,3.75,0,.11,0,.22-.01.37,0,.14-.02.27-.03.39h-10.25v-1.8h9.11l-.89.63c.02-.89-.14-1.68-.48-2.38s-.79-1.24-1.38-1.63-1.26-.59-2.03-.59-1.43.2-2.02.59-1.05.94-1.39,1.65-.5,1.51-.5,2.42v.42c0,.92.18,1.75.56,2.47s.89,1.29,1.56,1.69,1.43.6,2.29.6c.71,0,1.36-.14,1.94-.42s1.09-.7,1.54-1.25l1.2,1.62c-.55.73-1.22,1.29-2.03,1.67-.81.38-1.71.58-2.71.58h.01Zm11.55,0c-1,0-1.95-.16-2.85-.47-.9-.31-1.61-.7-2.12-1.15l.91-1.99c.51.4,1.15.74,1.91,1.02.76.28,1.53.42,2.32.42,1.02,0,1.75-.17,2.19-.5.45-.33.67-.79.67-1.38,0-.44-.13-.78-.41-1.02s-.63-.43-1.08-.55c-.45-.12-.94-.23-1.49-.33s-1.09-.22-1.64-.37c-.55-.15-1.05-.36-1.5-.63-.45-.27-.82-.65-1.09-1.12s-.41-1.12-.41-1.92.2-1.57.61-2.2c.41-.63.99-1.11,1.74-1.45s1.64-.51,2.67-.51c.79,0,1.59.11,2.4.33.81.22,1.47.53,1.99.93l-.93,1.99c-.55-.42-1.11-.71-1.71-.86s-1.18-.24-1.77-.24c-.96,0-1.67.18-2.14.53s-.7.82-.7,1.37c0,.47.14.83.42,1.09s.65.45,1.09.59c.45.14.94.26,1.49.35.55.1,1.09.22,1.64.37.55.15,1.04.35,1.49.61.45.26.81.63,1.09,1.1s.42,1.1.42,1.88c0,.84-.21,1.56-.64,2.17s-1.02,1.09-1.8,1.42-1.7.51-2.77.51h0Zm28.21-14.13c.97,0,1.82.22,2.57.65s1.32,1.1,1.74,1.99.62,2.01.62,3.37v7.97h-2.18v-7.68c0-1.34-.27-2.35-.82-3.03-.55-.68-1.31-1.02-2.29-1.02-.73,0-1.36.18-1.91.52-.55.35-.97.86-1.26,1.54-.29.68-.44,1.53-.44,2.54v7.14h-2.18v-7.68c0-1.34-.27-2.35-.81-3.03s-1.31-1.02-2.31-1.02c-.71,0-1.34.18-1.89.52-.55.35-.97.86-1.27,1.54-.3.68-.45,1.53-.45,2.54v7.14h-2.18v-13.85h2.09v3.69l-.34-.94c.38-.91.96-1.61,1.75-2.12s1.71-.76,2.75-.76c1.15,0,2.14.33,2.98.98s1.38,1.64,1.64,2.97l-.89-.42c.36-1.06,1-1.91,1.91-2.56s1.97-.97,3.18-.97h0Zm13.86,14.14c-1.29,0-2.42-.31-3.4-.91s-1.74-1.45-2.27-2.51c-.54-1.06-.81-2.28-.81-3.66s.26-2.6.78-3.66c.52-1.06,1.24-1.89,2.16-2.49s1.95-.9,3.1-.9,2.2.3,3.09.89,1.59,1.42,2.1,2.49.76,2.32.76,3.75c0,.11,0,.22-.01.37,0,.14-.02.27-.03.39h-10.25v-1.8h9.11l-.89.63c.02-.89-.14-1.68-.48-2.38s-.79-1.24-1.38-1.63-1.26-.59-2.03-.59-1.43.2-2.02.59-1.05.94-1.39,1.65-.5,1.51-.5,2.42v.42c0,.92.19,1.75.56,2.47s.89,1.29,1.56,1.69,1.43.6,2.29.6c.71,0,1.36-.14,1.94-.42s1.09-.7,1.54-1.25l1.2,1.62c-.55.73-1.22,1.29-2.03,1.67-.81.38-1.71.58-2.71.58h0Zm9.18-16.68c-.42,0-.78-.16-1.06-.47-.28-.31-.42-.7-.42-1.15s.14-.86.42-1.18.63-.47,1.06-.47.78.16,1.06.46c.28.31.42.69.42,1.14s-.13.87-.41,1.19-.63.48-1.07.48h0Zm-1.09,16.52v-13.85h2.18v13.85h-2.18Zm5.89,0v-19.39h2.18v19.39h-2.18Zm5.89,0v-19.39h2.18v19.39h-2.18Zm11.25.16c-1.29,0-2.42-.31-3.4-.91s-1.74-1.45-2.27-2.51c-.54-1.06-.81-2.28-.81-3.66s.26-2.6.78-3.66c.52-1.06,1.24-1.89,2.16-2.49.91-.6,1.95-.9,3.1-.9s2.2.3,3.09.89,1.6,1.42,2.1,2.49c.51,1.07.76,2.32.76,3.75,0,.11,0,.22-.01.37,0,.14-.02.27-.03.39h-10.25v-1.8h9.11l-.89.63c.02-.89-.14-1.68-.48-2.38s-.79-1.24-1.38-1.63-1.26-.59-2.03-.59-1.43.2-2.02.59c-.59.39-1.05.94-1.39,1.65s-.5,1.51-.5,2.42v.42c0,.92.18,1.75.56,2.47s.89,1.29,1.56,1.69,1.43.6,2.29.6c.71,0,1.36-.14,1.94-.42s1.09-.7,1.54-1.25l1.2,1.62c-.55.73-1.22,1.29-2.03,1.67-.81.38-1.71.58-2.71.58h0Zm13.16,0c-1.03,0-1.94-.22-2.71-.65-.78-.44-1.39-1.1-1.82-2-.43-.9-.65-2.02-.65-3.38v-7.97h2.18v7.68c0,1.36.29,2.38.85,3.06.57.68,1.37,1.02,2.4,1.02.76,0,1.42-.18,1.98-.53.56-.36.99-.88,1.29-1.57s.45-1.52.45-2.49v-7.16h2.18v13.85h-2.07v-3.74l.34.99c-.39.92-.98,1.64-1.77,2.14-.79.51-1.67.76-2.66.76h0Zm9.86-.16v-13.85h2.09v3.76l-.2-.94c.33-.96.89-1.69,1.68-2.2s1.76-.76,2.91-.76v2.43c-.09-.02-.18-.02-.26-.02h-.24c-1.17,0-2.09.4-2.77,1.2-.68.8-1.02,1.96-1.02,3.47v6.9h-2.18Zm12.32.16c-1,0-1.95-.16-2.85-.47-.9-.31-1.61-.7-2.13-1.15l.91-1.99c.51.4,1.15.74,1.91,1.02.76.28,1.53.42,2.32.42,1.02,0,1.75-.17,2.19-.5.45-.33.67-.79.67-1.38,0-.44-.13-.78-.41-1.02s-.63-.43-1.08-.55c-.45-.12-.94-.23-1.49-.33s-1.09-.22-1.64-.37c-.55-.15-1.05-.36-1.5-.63-.45-.27-.82-.65-1.09-1.12s-.41-1.12-.41-1.92.2-1.57.61-2.2c.41-.63.99-1.11,1.74-1.45s1.64-.51,2.67-.51c.79,0,1.59.11,2.4.33.81.22,1.47.53,1.99.93l-.93,1.99c-.55-.42-1.11-.71-1.71-.86s-1.18-.24-1.77-.24c-.96,0-1.67.18-2.14.53s-.7.82-.7,1.37c0,.47.14.83.42,1.09s.65.45,1.09.59c.45.14.94.26,1.49.35.55.1,1.09.22,1.64.37.55.15,1.04.35,1.49.61.45.26.81.63,1.09,1.1s.42,1.1.42,1.88c0,.84-.21,1.56-.64,2.17s-1.02,1.09-1.8,1.42-1.7.51-2.77.51h0Zm11.41-11.94v-2.07h7.68v2.07h-7.68Zm2.05,11.79v-15.08c0-1.36.34-2.45,1.03-3.25.69-.81,1.67-1.22,2.94-1.22.47,0,.92.07,1.35.2.43.13.8.33,1.1.61l-.66,1.91c-.23-.21-.49-.37-.77-.48-.29-.11-.59-.17-.91-.17-.64,0-1.12.2-1.45.61-.33.41-.5,1.02-.5,1.82v1.86l.04,1.15v12.05h-2.18,0Zm8.79-16.51c-.42,0-.78-.16-1.06-.47-.28-.31-.42-.7-.42-1.15s.14-.86.42-1.18.63-.47,1.06-.47.78.16,1.06.46c.28.31.42.69.42,1.14s-.13.87-.41,1.19-.63.48-1.07.48h0Zm-1.09,16.52v-13.85h2.18v13.85h-2.18Zm5.89,0v-19.39h2.18v19.39h-2.18Zm20.96-13.98c.97,0,1.82.22,2.57.65.74.44,1.32,1.1,1.74,1.99s.62,2.01.62,3.37v7.97h-2.18v-7.68c0-1.34-.27-2.35-.82-3.03-.55-.68-1.31-1.02-2.29-1.02-.73,0-1.36.18-1.91.52-.55.35-.97.86-1.26,1.54-.29.68-.44,1.53-.44,2.54v7.14h-2.18v-7.68c0-1.34-.27-2.35-.81-3.03s-1.31-1.02-2.31-1.02c-.71,0-1.34.18-1.89.52-.55.35-.97.86-1.27,1.54-.3.68-.46,1.53-.46,2.54v7.14h-2.18v-13.85h2.09v3.69l-.34-.94c.38-.91.96-1.61,1.75-2.12s1.71-.76,2.75-.76c1.15,0,2.14.33,2.98.98.83.65,1.38,1.64,1.64,2.97l-.89-.42c.36-1.06,1-1.91,1.91-2.56s1.97-.97,3.18-.97h0Zm11.95,14.14c-1,0-1.95-.16-2.85-.47s-1.61-.7-2.13-1.15l.91-1.99c.51.4,1.15.74,1.91,1.02.76.28,1.53.42,2.32.42,1.02,0,1.75-.17,2.19-.5.45-.33.67-.79.67-1.38,0-.44-.13-.78-.41-1.02s-.63-.43-1.08-.55c-.44-.12-.94-.23-1.49-.33s-1.09-.22-1.64-.37c-.55-.15-1.05-.36-1.5-.63-.45-.27-.82-.65-1.09-1.12s-.41-1.12-.41-1.92.2-1.57.61-2.2c.41-.63.99-1.11,1.74-1.45s1.64-.51,2.67-.51c.79,0,1.59.11,2.4.33s1.47.53,1.99.93l-.93,1.99c-.55-.42-1.11-.71-1.7-.86-.59-.16-1.18-.24-1.77-.24-.96,0-1.67.18-2.14.53s-.71.82-.71,1.37c0,.47.14.83.42,1.09.28.25.65.45,1.09.59.44.14.94.26,1.49.35.55.1,1.09.22,1.64.37.55.15,1.04.35,1.49.61.44.26.81.63,1.09,1.1s.42,1.1.42,1.88c0,.84-.21,1.56-.64,2.17s-1.02,1.09-1.8,1.42-1.7.51-2.77.51h0Zm18.5,0c-1.29,0-2.42-.31-3.4-.91-.98-.61-1.74-1.45-2.27-2.51-.54-1.06-.81-2.28-.81-3.66s.26-2.6.78-3.66,1.24-1.89,2.16-2.49c.91-.6,1.95-.9,3.1-.9s2.2.3,3.09.89,1.6,1.42,2.1,2.49.76,2.32.76,3.75c0,.11,0,.22-.01.37,0,.14-.02.27-.03.39h-10.25v-1.8h9.11l-.89.63c.02-.89-.14-1.68-.48-2.38s-.79-1.24-1.38-1.63-1.26-.59-2.03-.59-1.43.2-2.02.59c-.59.39-1.05.94-1.39,1.65-.33.71-.5,1.51-.5,2.42v.42c0,.92.18,1.75.56,2.47s.89,1.29,1.56,1.69,1.43.6,2.29.6c.71,0,1.36-.14,1.94-.42s1.09-.7,1.54-1.25l1.2,1.62c-.55.73-1.22,1.29-2.03,1.67-.81.38-1.71.58-2.71.58h0Zm6.36-11.95v-2.07h7.68v2.07h-7.68Zm5.86,11.95c-1.21,0-2.15-.38-2.82-1.12s-1-1.82-1-3.21v-12.7h2.18v12.6c0,.75.16,1.32.49,1.73.33.4.79.6,1.4.6.68,0,1.25-.22,1.71-.65l.68,1.8c-.33.33-.73.58-1.19.73s-.94.24-1.45.24h0Zm13.93,0c-1,0-1.95-.16-2.85-.47s-1.61-.7-2.13-1.15l.91-1.99c.51.4,1.15.74,1.91,1.02.76.28,1.53.42,2.32.42,1.02,0,1.75-.17,2.19-.5s.67-.79.67-1.38c0-.44-.13-.78-.41-1.02s-.63-.43-1.08-.55c-.45-.12-.94-.23-1.49-.33s-1.09-.22-1.64-.37c-.55-.15-1.05-.36-1.5-.63-.45-.27-.82-.65-1.09-1.12s-.41-1.12-.41-1.92.2-1.57.61-2.2c.41-.63.99-1.11,1.74-1.45s1.64-.51,2.67-.51c.79,0,1.59.11,2.4.33.81.22,1.47.53,1.99.93l-.93,1.99c-.55-.42-1.11-.71-1.71-.86-.59-.16-1.18-.24-1.77-.24-.96,0-1.67.18-2.14.53s-.7.82-.7,1.37c0,.47.14.83.42,1.09.28.25.65.45,1.09.59.45.14.94.26,1.49.35.55.1,1.09.22,1.64.37.55.15,1.04.35,1.49.61.44.26.81.63,1.09,1.1.28.47.42,1.1.42,1.88,0,.84-.21,1.56-.64,2.17s-1.02,1.09-1.8,1.42-1.7.51-2.77.51h0Zm12.84,0c-1.29,0-2.42-.31-3.4-.91-.98-.61-1.74-1.45-2.27-2.51-.54-1.06-.81-2.28-.81-3.66s.26-2.6.78-3.66,1.24-1.89,2.16-2.49c.91-.6,1.95-.9,3.1-.9s2.2.3,3.09.89,1.6,1.42,2.1,2.49.76,2.32.76,3.75c0,.11,0,.22-.01.37,0,.14-.02.27-.03.39h-10.25v-1.8h9.11l-.89.63c.02-.89-.14-1.68-.48-2.38s-.79-1.24-1.38-1.63-1.26-.59-2.03-.59-1.43.2-2.02.59c-.59.39-1.05.94-1.39,1.65-.33.71-.5,1.51-.5,2.42v.42c0,.92.18,1.75.56,2.47s.89,1.29,1.56,1.69,1.43.6,2.29.6c.71,0,1.36-.14,1.94-.42s1.09-.7,1.54-1.25l1.2,1.62c-.55.73-1.22,1.29-2.03,1.67-.81.38-1.71.58-2.71.58h0Zm-2.16-16.03l3.09-3.4h2.77l-3.82,3.4h-2.05Zm10.25,15.86v-13.85h2.09v3.76l-.2-.94c.33-.96.89-1.69,1.68-2.2s1.76-.76,2.91-.76v2.43c-.09-.02-.18-.02-.26-.02h-.24c-1.17,0-2.09.4-2.77,1.2-.68.8-1.02,1.96-1.02,3.47v6.9h-2.18Zm9.95-16.52c-.42,0-.78-.16-1.06-.47-.28-.31-.42-.7-.42-1.15s.14-.86.42-1.18c.28-.31.63-.47,1.06-.47s.78.16,1.06.46c.28.31.42.69.42,1.14s-.13.87-.41,1.19c-.27.32-.63.48-1.07.48h0Zm-1.09,16.52v-13.85h2.18v13.85h-2.18Zm11.25.16c-1.29,0-2.42-.31-3.4-.91-.98-.61-1.74-1.45-2.27-2.51-.54-1.06-.81-2.28-.81-3.66s.26-2.6.78-3.66,1.24-1.89,2.16-2.49c.91-.6,1.95-.9,3.1-.9s2.2.3,3.09.89,1.6,1.42,2.1,2.49.76,2.32.76,3.75c0,.11,0,.22-.01.37,0,.14-.02.27-.03.39h-10.25v-1.8h9.11l-.89.63c.02-.89-.14-1.68-.48-2.38s-.79-1.24-1.38-1.63-1.26-.59-2.03-.59-1.43.2-2.02.59c-.59.39-1.05.94-1.39,1.65-.33.71-.5,1.51-.5,2.42v.42c0,.92.18,1.75.56,2.47s.89,1.29,1.56,1.69,1.43.6,2.29.6c.71,0,1.36-.14,1.94-.42s1.09-.7,1.54-1.25l1.2,1.62c-.55.73-1.22,1.29-2.03,1.67-.81.38-1.71.58-2.71.58h0Zm11.55,0c-1,0-1.95-.16-2.85-.47s-1.61-.7-2.13-1.15l.91-1.99c.51.4,1.15.74,1.91,1.02.76.28,1.53.42,2.32.42,1.02,0,1.75-.17,2.19-.5.45-.33.67-.79.67-1.38,0-.44-.13-.78-.41-1.02s-.63-.43-1.08-.55c-.44-.12-.94-.23-1.49-.33s-1.09-.22-1.64-.37c-.55-.15-1.05-.36-1.5-.63-.45-.27-.82-.65-1.09-1.12s-.41-1.12-.41-1.92.2-1.57.61-2.2c.41-.63.99-1.11,1.74-1.45s1.64-.51,2.67-.51c.79,0,1.59.11,2.4.33s1.47.53,1.99.93l-.93,1.99c-.55-.42-1.11-.71-1.7-.86-.59-.16-1.18-.24-1.77-.24-.96,0-1.67.18-2.14.53s-.71.82-.71,1.37c0,.47.14.83.42,1.09.28.25.65.45,1.09.59.44.14.94.26,1.49.35.55.1,1.09.22,1.64.37.55.15,1.04.35,1.49.61.44.26.81.63,1.09,1.1s.42,1.1.42,1.88c0,.84-.21,1.56-.64,2.17s-1.02,1.09-1.8,1.42-1.7.51-2.77.51h0Zm16.62-.15v-16.02h-5.45v-2.27h13.16v2.27h-5.45v16.02h-2.25Zm14.32,0l-7-18.3h2.45l6.43,16.89h-1.41l6.48-16.89h2.27l-6.98,18.3h-2.25Z"/></g><text class="cls-3" transform="translate(361.82 356.25)"><tspan x="0" y="0">AUCUNE</tspan><tspan x="-103.94" y="48">BANDE-ANNONCE </tspan><tspan x="-37.88" y="96">DISPONIBLE</tspan></text></g></svg>