<?xml version="1.0" standalone="no"?>
<!DOCTYPE svg PUBLIC "-//W3C//DTD SVG 20010904//EN"
 "http://www.w3.org/TR/2001/REC-SVG-20010904/DTD/svg10.dtd">
<svg version="1.0" xmlns="http://www.w3.org/2000/svg"
 width="1000.000000pt" height="1000.000000pt" viewBox="0 0 1000.000000 1000.000000"
 preserveAspectRatio="xMidYMid meet">
<metadata>
Created by potrace 1.14, written by Peter Selinger 2001-2017
</metadata>
<g transform="translate(0.000000,1000.000000) scale(0.100000,-0.100000)"
fill="#000000" stroke="none">
<path d="M5511 9756 l-1 -246 78 -1 c151 -3 348 -15 396 -25 12 -3 46 -7 76
-10 30 -2 62 -6 70 -9 8 -2 33 -7 55 -10 23 -3 52 -8 65 -10 14 -3 36 -7 50
-10 14 -2 48 -9 75 -15 28 -6 61 -13 75 -15 14 -3 38 -11 53 -17 15 -6 30 -8
34 -4 3 3 11 1 18 -4 6 -5 20 -11 31 -13 113 -21 431 -134 612 -218 46 -22 88
-39 93 -39 5 0 9 -4 9 -10 0 -5 6 -10 14 -10 29 0 270 -137 440 -249 184 -123
226 -153 281 -203 17 -16 34 -28 38 -28 4 0 18 -10 31 -22 13 -13 52 -48 87
-78 35 -30 90 -80 122 -110 33 -30 63 -57 69 -58 5 -2 86 73 180 168 l172 171
-65 61 c-91 86 -198 181 -223 198 -19 13 -57 45 -90 75 -6 6 -36 28 -66 50
-30 22 -64 48 -74 57 -11 10 -23 18 -27 18 -4 0 -14 7 -22 15 -22 22 -274 185
-286 185 -6 0 -11 4 -11 9 0 5 -8 11 -17 14 -10 3 -45 22 -78 42 -85 50 -441
225 -460 225 -8 0 -15 5 -15 10 0 6 -3 9 -7 8 -5 0 -17 2 -28 7 -68 28 -172
68 -185 71 -8 2 -67 21 -130 43 -63 22 -117 41 -120 41 -3 0 -28 8 -56 16 -28
8 -61 17 -73 19 -11 3 -30 7 -41 10 -11 3 -30 8 -42 11 -13 3 -27 6 -33 8 -33
10 -64 16 -90 20 -16 2 -30 5 -30 6 0 2 -52 13 -125 25 -19 4 -46 9 -60 11
-14 3 -38 7 -55 9 -16 3 -43 6 -60 9 -16 3 -61 8 -99 11 -38 4 -79 9 -90 11
-30 7 -109 12 -297 19 l-167 7 -1 -246z"/>
<path d="M5299 9515 c-3 -2 -68 -7 -145 -9 -76 -2 -139 -5 -139 -6 0 -1 -137
-10 -192 -13 -13 -1 -23 -5 -23 -10 0 -5 -6 -4 -13 2 -8 6 -16 8 -19 5 -6 -6
-5 -5 -173 -29 -22 -3 -60 -10 -85 -15 -25 -5 -63 -12 -85 -16 -22 -4 -44 -8
-50 -10 -12 -3 -52 -11 -85 -18 -14 -3 -77 -19 -140 -36 -63 -17 -122 -33
-130 -35 -8 -2 -15 -4 -15 -5 0 -1 -8 -3 -17 -5 -24 -4 -179 -54 -203 -65 -11
-5 -69 -27 -130 -50 -60 -23 -123 -48 -140 -55 -35 -16 -123 -53 -130 -55 -8
-3 -250 -126 -275 -141 -14 -8 -28 -18 -32 -24 -4 -5 -8 -6 -8 -2 0 5 -12 0
-27 -10 -16 -10 -45 -28 -65 -38 -21 -11 -38 -23 -38 -27 0 -5 -5 -8 -11 -8
-16 0 -231 -144 -364 -244 -131 -98 -125 -94 -175 -137 -19 -17 -52 -45 -73
-62 -21 -18 -81 -72 -133 -120 l-93 -89 171 -169 c95 -93 175 -169 179 -169 3
0 27 19 51 43 90 84 228 204 293 255 17 12 57 43 90 68 167 128 444 296 655
397 109 52 253 116 275 121 6 2 24 9 40 15 78 33 377 128 430 138 11 2 38 9
60 15 22 6 45 12 50 13 6 0 28 5 50 10 22 5 49 10 60 11 11 1 20 3 20 4 0 3
39 10 67 13 16 1 28 6 28 10 0 5 4 6 9 3 4 -3 37 -1 72 5 35 6 75 12 89 14 14
1 48 5 75 9 90 11 158 16 308 22 117 4 147 2 148 -8 1 -18 1 -713 0 -763 l-1
-40 -72 -1 c-85 -1 -290 -14 -298 -19 -3 -2 -33 -6 -67 -10 -34 -3 -72 -8 -85
-11 -20 -5 -46 -9 -108 -18 -9 -1 -21 -5 -28 -10 -6 -4 -12 -5 -12 -3 0 3 -17
1 -37 -4 -35 -9 -65 -16 -103 -24 -8 -2 -15 -4 -15 -5 0 -1 -9 -3 -20 -5 -53
-10 -286 -88 -368 -124 -26 -11 -49 -21 -52 -22 -36 -9 -45 -12 -45 -18 0 -4
-6 -8 -12 -8 -16 0 -183 -82 -263 -129 -33 -19 -79 -44 -102 -56 -24 -12 -43
-26 -43 -30 0 -4 -7 -8 -15 -8 -8 0 -15 -4 -15 -10 0 -5 -5 -10 -10 -10 -23 0
-326 -229 -416 -315 -12 -11 -40 -38 -62 -59 l-41 -39 -135 134 c-74 74 -205
203 -291 288 l-156 155 -70 -75 c-126 -133 -135 -143 -200 -224 -35 -44 -66
-82 -69 -85 -3 -3 -33 -43 -67 -90 -34 -47 -69 -93 -77 -102 -9 -10 -13 -18
-8 -18 4 0 3 -4 -3 -8 -13 -9 -71 -97 -124 -187 -22 -38 -46 -77 -52 -86 -7
-10 -12 -21 -11 -25 0 -5 -5 -16 -13 -24 -22 -26 -140 -269 -193 -400 -47
-116 -129 -346 -137 -380 -2 -12 -18 -68 -30 -110 -7 -24 -19 -87 -17 -92 1
-5 -2 -8 -6 -8 -4 0 -8 -8 -8 -17 -1 -10 -4 -29 -7 -43 -7 -32 -36 -175 -42
-209 -7 -47 -17 -115 -20 -141 -1 -14 -5 -43 -9 -65 -26 -178 -27 -674 -1
-890 2 -16 6 -52 9 -78 7 -66 54 -325 65 -364 5 -18 8 -33 5 -33 -3 0 0 -8 5
-17 5 -10 12 -34 15 -53 3 -19 20 -80 36 -135 17 -55 32 -104 34 -110 5 -23
28 -91 36 -110 4 -11 17 -45 29 -75 11 -30 26 -68 32 -85 7 -16 12 -33 11 -37
-1 -5 2 -8 8 -8 5 0 10 -6 10 -13 0 -18 15 -50 106 -232 88 -174 116 -227 125
-235 3 -3 20 -32 39 -65 19 -33 36 -62 39 -65 9 -8 71 -100 71 -106 0 -3 5
-10 10 -17 6 -7 42 -55 81 -107 38 -52 74 -96 79 -98 6 -2 10 -10 10 -17 0 -7
3 -15 8 -17 4 -1 20 -19 36 -38 103 -126 250 -280 267 -280 8 1 79 66 159 145
79 80 145 145 145 145 1 0 63 61 139 136 l137 137 42 -40 c23 -22 62 -57 86
-79 24 -21 49 -44 55 -49 48 -43 116 -95 125 -95 6 0 11 -4 11 -9 0 -10 218
-162 243 -169 9 -2 17 -8 17 -13 0 -5 7 -9 15 -9 8 0 15 -4 15 -9 0 -5 8 -11
18 -14 9 -4 37 -18 61 -32 55 -33 255 -135 264 -135 3 0 30 -11 59 -24 123
-57 320 -123 478 -161 8 -2 31 -9 50 -14 19 -6 47 -11 62 -11 16 0 28 -4 28
-10 0 -5 7 -7 15 -4 8 3 19 2 26 -2 6 -4 26 -8 43 -10 17 -2 45 -5 61 -8 17
-3 50 -7 75 -11 25 -3 59 -7 75 -10 47 -6 233 -18 305 -19 l65 -1 -2 -390 c-1
-214 -2 -398 -2 -408 -1 -17 -10 -18 -153 -13 -84 4 -175 9 -203 12 -88 9
-297 35 -319 40 -11 3 -34 7 -51 9 -31 5 -54 9 -95 19 -14 3 -38 8 -55 11 -36
7 -59 13 -62 15 -2 2 -11 3 -20 4 -10 1 -29 6 -43 11 -14 5 -32 9 -40 10 -21
3 -141 35 -165 45 -11 5 -60 22 -110 38 -105 36 -249 90 -320 123 -27 12 -52
23 -55 23 -19 5 -226 112 -232 120 -5 7 -8 7 -8 1 0 -7 -3 -7 -8 0 -4 6 -25
19 -47 30 -22 10 -62 33 -90 50 -131 82 -220 141 -223 148 -2 4 -9 7 -16 7 -7
0 -21 8 -32 17 -29 27 -132 103 -139 103 -3 0 -16 10 -28 23 -12 12 -38 34
-57 49 -19 15 -48 38 -63 52 -16 13 -45 38 -65 55 -20 16 -65 57 -99 90 -34
34 -67 61 -73 61 -5 0 -86 -76 -179 -169 l-170 -169 67 -64 c67 -63 174 -160
209 -188 10 -8 41 -33 68 -55 28 -22 52 -42 55 -45 3 -3 59 -45 125 -93 66
-47 125 -91 132 -97 7 -5 15 -10 18 -10 3 0 32 -18 63 -39 32 -21 98 -63 147
-92 50 -29 93 -57 97 -63 4 -6 8 -7 8 -3 0 5 21 -3 46 -18 68 -40 220 -115
233 -115 6 0 11 -4 11 -10 0 -5 6 -10 13 -10 8 0 27 -6 43 -14 33 -16 99 -44
164 -71 25 -10 59 -23 75 -30 32 -14 257 -92 265 -93 3 -1 12 -3 20 -6 75 -24
96 -30 104 -28 4 2 14 -3 22 -9 8 -6 14 -9 14 -6 0 3 30 -3 68 -14 37 -11 81
-22 97 -25 17 -2 38 -7 47 -10 9 -3 27 -7 40 -9 13 -3 43 -9 68 -14 25 -6 59
-13 75 -15 17 -3 57 -10 90 -15 33 -6 84 -13 113 -17 29 -3 62 -7 72 -9 57
-11 239 -24 413 -30 136 -4 137 -4 138 18 0 12 1 122 1 244 l0 223 46 1 c210
2 490 29 677 65 22 4 51 8 65 10 14 1 26 3 28 4 1 1 10 3 20 4 9 1 22 4 27 8
6 3 28 9 50 12 22 4 65 13 95 22 30 8 62 16 70 18 97 23 335 101 373 122 15 8
27 13 27 11 0 -3 26 6 58 19 31 14 75 32 97 41 122 51 517 262 569 305 6 4 43
29 81 55 66 43 235 168 280 204 28 23 108 91 128 109 9 8 51 48 94 88 43 39
83 72 89 72 6 0 31 -21 56 -47 25 -27 68 -69 94 -96 56 -54 55 -53 132 -129
31 -32 62 -58 68 -58 6 0 53 46 105 101 156 169 202 222 294 344 33 44 68 89
78 99 9 11 17 23 17 27 0 4 6 14 13 21 7 7 44 60 83 118 85 130 92 141 100
163 3 9 10 17 15 17 5 0 9 4 9 9 0 5 22 47 48 93 47 82 134 256 187 373 14 33
33 72 41 87 8 15 14 29 14 30 -1 2 3 14 8 28 5 14 10 28 11 33 0 4 8 21 16 37
9 17 13 30 9 30 -4 0 -1 6 5 13 6 8 8 17 4 20 -3 4 0 7 7 7 7 0 11 3 8 6 -4 3
1 22 9 42 14 34 52 151 73 227 33 118 47 175 43 175 -3 0 -1 6 5 13 5 6 13 28
16 47 3 19 12 64 20 100 8 36 17 81 21 100 3 19 7 44 9 55 2 11 7 40 10 64 3
23 8 55 11 70 2 14 7 49 10 76 2 28 7 60 9 72 27 133 27 804 0 968 -3 17 -7
48 -9 70 -3 22 -7 56 -10 75 -3 19 -8 50 -10 68 -6 44 -13 82 -19 112 -3 14
-11 52 -17 85 -6 33 -19 96 -31 140 -11 44 -22 91 -25 104 -2 14 -7 29 -10 34
-3 6 -7 20 -8 31 -4 33 -118 371 -127 374 -5 2 -6 8 -3 12 3 5 1 17 -4 27 -6
10 -29 63 -52 118 -55 134 -159 349 -170 353 -5 2 -9 9 -9 16 0 7 -33 68 -73
137 -40 68 -79 135 -87 149 -8 14 -17 27 -20 30 -14 14 -70 102 -70 109 0 5
-4 11 -8 13 -5 2 -23 26 -42 53 -18 28 -36 52 -39 55 -4 3 -26 32 -50 65 -25
33 -53 69 -62 80 -10 11 -42 49 -71 85 -29 36 -57 70 -63 76 -5 6 -57 61 -114
122 l-104 111 -111 -109 c-61 -60 -139 -137 -173 -170 -35 -33 -63 -63 -63
-67 0 -3 31 -36 68 -72 37 -36 101 -104 142 -151 41 -47 78 -86 83 -88 4 -2 7
-10 7 -17 0 -7 4 -15 9 -17 20 -7 231 -306 231 -327 0 -6 5 -11 10 -11 6 0 10
-7 10 -15 0 -8 5 -15 10 -15 6 0 10 -4 10 -8 0 -5 26 -55 58 -113 74 -132 169
-326 177 -361 4 -16 11 -28 15 -28 4 0 10 -10 13 -22 3 -13 28 -81 56 -153 29
-71 53 -138 54 -147 1 -10 5 -18 9 -18 4 0 7 -3 6 -7 -1 -5 8 -42 22 -83 13
-41 25 -82 27 -90 2 -8 5 -19 7 -25 1 -5 6 -23 10 -40 4 -16 12 -41 17 -55 4
-14 10 -36 13 -50 2 -14 11 -54 20 -90 8 -36 18 -81 21 -100 3 -19 12 -66 20
-105 50 -252 71 -619 51 -900 -9 -135 -14 -191 -20 -234 -3 -20 -8 -56 -11
-81 -7 -51 -13 -85 -15 -85 -1 0 -3 -11 -5 -25 -1 -14 -7 -50 -14 -80 -6 -30
-13 -64 -15 -75 -2 -11 -11 -46 -19 -77 -8 -32 -13 -58 -10 -58 3 0 0 -7 -7
-15 -7 -9 -10 -18 -7 -21 3 -3 -1 -21 -9 -40 -8 -19 -12 -34 -10 -34 3 0 -2
-17 -10 -37 -9 -20 -18 -46 -21 -57 -7 -35 -9 -40 -22 -81 -8 -22 -16 -44 -20
-50 -3 -5 -6 -14 -7 -20 -12 -63 -198 -474 -272 -600 -9 -17 -30 -53 -46 -80
-31 -54 -187 -297 -196 -305 -3 -3 -25 -32 -49 -65 -25 -33 -47 -62 -51 -65
-3 -3 -17 -21 -30 -40 -14 -19 -32 -42 -40 -50 -8 -9 -37 -42 -65 -74 -27 -33
-86 -97 -130 -143 l-80 -84 -290 288 -290 288 60 61 c78 80 145 157 226 263
80 104 189 265 189 279 0 6 4 12 8 14 10 4 104 174 102 184 -1 4 2 10 7 13 5
3 16 22 25 41 60 131 82 181 113 260 19 49 35 96 35 103 0 7 4 17 8 22 9 10
31 81 39 124 2 14 10 29 16 33 7 4 9 8 5 8 -4 0 -2 15 3 33 20 70 63 283 75
372 3 28 8 58 10 69 25 132 24 618 -1 781 -3 17 -7 48 -10 70 -3 22 -10 63
-15 90 -5 28 -11 61 -14 75 -8 49 -37 175 -44 190 -3 8 -7 20 -8 25 -1 6 -3
12 -4 15 -2 5 -5 19 -14 55 -2 11 -10 34 -16 50 -7 17 -14 39 -16 50 -5 25
-76 209 -106 272 -12 26 -22 50 -23 53 -4 24 -154 303 -173 322 -6 6 -12 18
-12 25 0 7 -4 13 -10 13 -5 0 -10 6 -10 13 0 7 -8 22 -17 33 -10 11 -25 32
-33 46 -46 80 -214 288 -327 406 -35 36 -63 67 -63 70 0 3 129 133 287 290
l287 284 -75 72 c-78 74 -139 128 -199 177 -94 76 -167 132 -192 147 -15 9
-28 20 -28 24 0 4 -7 8 -15 8 -8 0 -15 4 -15 8 0 5 -16 17 -35 28 -19 10 -35
21 -35 25 0 4 -13 12 -30 19 -16 7 -30 16 -30 21 0 5 -5 9 -12 9 -6 0 -26 11
-44 25 -18 14 -36 25 -39 25 -4 0 -26 14 -51 30 -24 17 -44 27 -44 23 0 -4 -4
-3 -8 2 -4 6 -18 16 -32 24 -42 24 -319 161 -325 161 -3 0 -24 9 -48 20 -48
22 -211 85 -277 106 -25 8 -54 19 -65 24 -17 7 -98 31 -155 46 -8 2 -42 11
-75 19 -33 9 -67 18 -75 20 -8 2 -15 4 -15 5 0 1 -9 3 -20 5 -11 1 -39 7 -62
13 -23 5 -44 7 -48 4 -3 -3 -5 -1 -5 4 0 5 -17 10 -38 12 -35 2 -77 9 -77 12
0 1 -9 3 -20 4 -19 3 -117 16 -160 21 -31 5 -113 13 -184 20 -55 5 -228 13
-312 15 l-27 0 0 245 c0 231 -1 262 -13 250z m-534 -2716 c39 -12 73 -22 78
-21 4 1 7 -3 7 -10 0 -6 3 -9 6 -5 3 3 11 2 18 -3 6 -6 65 -38 131 -72 66 -34
141 -73 167 -87 25 -15 74 -41 108 -59 34 -19 78 -43 99 -54 20 -12 61 -35 91
-51 30 -17 129 -73 220 -125 91 -53 190 -109 220 -125 30 -17 57 -34 58 -39 2
-4 8 -8 14 -8 5 0 37 -16 71 -36 34 -20 77 -45 95 -55 111 -64 508 -305 510
-311 2 -5 7 -8 12 -8 11 0 114 -63 118 -72 2 -5 8 -8 14 -8 5 0 28 -13 51 -28
23 -16 65 -44 93 -63 164 -110 271 -267 300 -444 9 -55 11 -186 2 -191 -4 -3
-5 -13 -3 -24 2 -11 -1 -22 -6 -25 -5 -4 -7 -11 -4 -16 4 -5 3 -15 -2 -21 -4
-7 -8 -19 -10 -27 -3 -25 -45 -116 -61 -133 -8 -10 -12 -18 -8 -18 10 0 -40
-65 -92 -121 -44 -48 -191 -159 -210 -159 -6 0 -12 -4 -14 -8 -3 -8 -92 -69
-143 -98 -11 -6 -49 -30 -85 -52 -118 -74 -255 -157 -282 -171 -16 -7 -28 -17
-28 -22 0 -5 -3 -8 -7 -7 -5 1 -64 -31 -133 -72 -69 -41 -134 -79 -145 -85
-57 -31 -122 -70 -135 -81 -8 -7 -17 -12 -20 -11 -3 0 -36 -18 -75 -40 -38
-22 -86 -50 -105 -60 -97 -54 -152 -85 -192 -106 -24 -13 -59 -33 -78 -44 -19
-11 -73 -40 -120 -64 -47 -24 -86 -47 -88 -51 -2 -5 -12 -8 -22 -8 -10 0 -20
-3 -22 -8 -1 -4 -43 -27 -91 -51 -48 -25 -90 -48 -93 -53 -3 -4 -14 -8 -25 -8
-10 0 -19 -4 -19 -10 0 -5 -3 -9 -7 -8 -5 1 -17 -3 -29 -9 -32 -18 -120 -52
-151 -58 -91 -19 -137 -23 -213 -20 -47 2 -101 8 -120 14 -19 5 -46 13 -60 16
-14 4 -32 9 -40 13 -8 3 -17 6 -20 6 -3 1 -36 18 -72 40 -61 35 -198 158 -198
177 0 4 -6 14 -13 21 -26 28 -74 144 -93 225 -3 15 -8 215 -9 443 -2 228 -4
420 -5 425 -1 6 -1 12 0 15 5 14 2 128 -4 138 -4 7 -4 12 1 12 4 0 8 182 8
405 0 223 -4 405 -8 405 -5 0 -5 5 -2 11 4 6 8 173 10 372 2 199 6 373 10 387
4 14 7 32 7 40 0 8 5 21 11 28 5 6 7 12 3 12 -11 0 44 114 82 170 44 65 135
155 174 171 15 6 28 15 28 19 0 6 37 21 49 19 2 0 7 3 10 8 6 8 79 33 151 52
65 17 258 6 335 -20z"/>
<path d="M1507 8397 c-56 -56 -149 -158 -195 -212 -10 -11 -43 -50 -75 -86
-31 -36 -57 -71 -57 -78 0 -6 -4 -11 -8 -11 -5 0 -30 -30 -57 -67 -27 -38 -52
-70 -55 -73 -15 -12 -229 -340 -222 -340 4 0 3 -4 -3 -8 -5 -4 -16 -17 -22
-29 -7 -13 -19 -33 -25 -45 -7 -13 -15 -25 -18 -28 -5 -5 -24 -40 -85 -155
-20 -38 -41 -76 -47 -82 -6 -7 -7 -13 -3 -13 4 0 2 -7 -5 -15 -7 -8 -9 -15 -4
-15 5 0 4 -4 -2 -8 -11 -7 -59 -104 -55 -110 2 -2 -4 -13 -12 -25 -8 -12 -30
-62 -50 -112 -20 -49 -41 -103 -48 -120 -7 -16 -13 -32 -14 -35 -1 -3 -5 -12
-8 -20 -13 -29 -117 -349 -121 -372 -3 -13 -5 -24 -7 -25 -1 -2 -2 -6 -3 -10
-1 -5 -5 -18 -10 -31 -4 -12 -9 -32 -10 -45 -2 -12 -6 -29 -9 -37 -6 -18 -34
-134 -41 -175 -3 -16 -8 -41 -11 -55 -3 -14 -8 -36 -11 -50 -2 -14 -7 -41 -10
-60 -4 -19 -8 -42 -9 -50 -3 -22 -16 -109 -20 -129 -2 -10 -6 -50 -10 -90 -3
-40 -8 -81 -10 -92 -19 -98 -27 -655 -12 -844 13 -154 15 -177 21 -215 3 -19
8 -57 11 -85 6 -51 11 -87 20 -140 3 -16 8 -47 11 -68 7 -44 9 -53 17 -87 4
-14 9 -38 11 -55 5 -26 29 -133 40 -175 3 -8 9 -35 15 -60 10 -46 87 -303 98
-330 3 -8 7 -18 8 -22 2 -5 4 -10 5 -13 1 -3 4 -9 5 -15 1 -5 4 -12 5 -15 1
-3 3 -8 5 -12 1 -5 6 -19 12 -33 6 -14 17 -45 26 -70 27 -79 139 -335 148
-338 5 -2 9 -9 9 -16 0 -11 94 -204 120 -246 12 -19 99 -168 114 -195 35 -62
168 -259 178 -263 4 -2 8 -10 8 -18 0 -8 7 -17 15 -20 8 -4 15 -10 15 -15 0
-12 127 -178 223 -292 91 -108 281 -307 292 -307 11 0 376 363 373 371 -2 4
-39 45 -83 91 -88 92 -157 171 -231 263 -27 33 -53 65 -59 71 -5 6 -17 22 -25
34 -8 12 -22 30 -30 40 -8 10 -22 28 -30 40 -8 12 -30 42 -47 66 -18 23 -33
48 -33 53 0 6 -4 11 -10 11 -5 0 -10 7 -10 15 0 8 -4 15 -9 15 -5 0 -13 9 -16
20 -3 11 -12 26 -18 32 -13 13 -26 35 -109 178 -60 102 -208 393 -214 420 0 3
-6 17 -12 32 -61 148 -86 212 -125 328 -41 122 -99 326 -111 390 -2 14 -11 54
-20 90 -15 65 -25 118 -30 155 -2 11 -6 34 -9 50 -7 31 -12 67 -23 165 -4 30
-8 69 -10 85 -19 155 -26 607 -12 765 4 41 10 102 13 135 2 33 7 71 10 85 3
14 7 48 10 75 3 28 7 61 10 75 3 14 8 39 10 55 2 17 11 62 20 100 8 39 17 81
20 95 5 30 17 79 30 128 2 9 9 35 15 57 6 22 13 48 15 58 3 9 7 25 9 35 7 32
97 292 116 337 11 25 17 45 13 45 -3 0 1 7 8 16 7 9 14 22 15 29 3 19 149 335
173 375 5 8 26 47 47 85 20 39 50 89 65 112 16 23 29 45 29 49 0 3 16 29 35
55 19 27 35 51 35 54 0 7 157 229 179 253 12 12 19 22 16 22 -3 0 3 8 13 18 9
11 24 28 32 38 24 31 112 135 150 178 39 45 61 68 140 150 50 52 53 58 38 70
-10 7 -15 16 -11 19 3 4 2 7 -4 7 -5 0 -84 74 -175 165 -91 91 -168 165 -172
165 -4 0 -35 -28 -69 -63z"/>
<path d="M8358 1640 c-7 -11 -16 -20 -20 -20 -4 0 -26 -19 -50 -42 -45 -44
-89 -83 -173 -153 -27 -22 -53 -45 -59 -50 -6 -6 -36 -28 -66 -50 -30 -22 -59
-43 -65 -48 -42 -34 -137 -97 -145 -97 -5 0 -10 -4 -10 -10 0 -5 -7 -10 -15
-10 -8 0 -15 -4 -15 -8 0 -5 -10 -14 -22 -21 -13 -6 -32 -17 -43 -24 -116 -71
-360 -206 -385 -212 -3 -1 -32 -14 -65 -29 -102 -47 -117 -54 -210 -91 -49
-21 -98 -39 -108 -40 -9 -2 -23 -7 -30 -12 -6 -4 -14 -8 -17 -8 -33 -4 -110
-31 -110 -39 0 -5 -2 -7 -6 -4 -3 3 -26 -1 -52 -9 -71 -21 -263 -71 -302 -78
-18 -3 -36 -7 -39 -9 -3 -2 -30 -7 -58 -11 -29 -3 -67 -10 -84 -15 -18 -5 -36
-7 -40 -4 -5 3 -15 2 -21 -2 -7 -5 -19 -9 -28 -9 -8 -1 -42 -5 -75 -10 -138
-17 -256 -27 -390 -30 -60 -2 -118 -4 -127 -4 -16 -1 -17 -21 -16 -247 l1
-245 171 6 c94 3 185 8 201 10 71 9 182 19 213 20 17 0 32 3 32 8 0 4 3 6 8 5
7 -2 109 10 142 17 8 1 31 5 50 9 19 3 46 8 60 11 14 3 39 8 55 10 17 3 37 8
45 10 8 2 26 6 40 9 51 10 70 15 79 21 5 3 22 7 38 10 32 4 68 13 68 15 0 2
19 7 55 14 41 9 378 125 455 157 17 7 32 13 35 13 3 1 21 8 40 17 19 9 53 25
75 34 102 45 271 129 277 139 4 6 8 8 8 4 0 -4 27 8 59 27 33 19 64 35 70 35
6 0 11 5 11 10 0 6 4 10 9 10 11 0 113 61 122 73 3 5 10 9 15 9 21 2 400 268
424 298 3 3 14 13 26 21 25 17 131 109 187 162 22 20 41 37 43 37 2 0 26 23
55 52 l51 51 -168 168 c-93 93 -175 169 -181 169 -7 0 -18 -9 -25 -20z"/>
</g>
</svg>
