<?xml version="1.0" encoding="UTF-8"?><svg id="Layer_1" xmlns="http://www.w3.org/2000/svg" xmlns:xlink="http://www.w3.org/1999/xlink" viewBox="0 0 487.06 500"><defs><style>.cls-1{fill:url(#linear-gradient-2);}.cls-2{fill:#b2cc54;}.cls-3{fill:url(#linear-gradient-6);}.cls-4{fill:url(#radial-gradient);}.cls-5{fill:url(#linear-gradient-5);}.cls-6{fill:url(#linear-gradient-7);}.cls-7{fill:url(#linear-gradient-3);}.cls-8{fill:url(#linear-gradient);}.cls-9{fill:url(#linear-gradient-4);}</style><linearGradient id="linear-gradient" x1="349.66" y1="-20.97" x2="349.66" y2="501.3" gradientUnits="userSpaceOnUse"><stop offset="0" stop-color="#13bf00"/><stop offset="1" stop-color="#c1cc00"/></linearGradient><linearGradient id="linear-gradient-2" x1="444.91" y1="-20.97" x2="444.91" y2="501.3" xlink:href="#linear-gradient"/><linearGradient id="linear-gradient-3" x1="178.6" y1="-20.97" x2="178.6" y2="501.3" xlink:href="#linear-gradient"/><linearGradient id="linear-gradient-4" x1="45.61" y1="-20.97" x2="45.61" y2="501.3" xlink:href="#linear-gradient"/><linearGradient id="linear-gradient-5" y1="-20.97" y2="501.3" xlink:href="#linear-gradient"/><linearGradient id="linear-gradient-6" x1="178.6" y1="-20.98" x2="178.6" y2="501.3" xlink:href="#linear-gradient"/><linearGradient id="linear-gradient-7" x1="238.52" y1="-20.97" x2="238.52" y2="501.3" xlink:href="#linear-gradient"/><radialGradient id="radial-gradient" cx="243.52" cy="200.43" fx="243.52" fy="200.43" r="220.73" gradientUnits="userSpaceOnUse"><stop offset="0" stop-color="#c1cc00"/><stop offset="1" stop-color="#13bf00"/></radialGradient></defs><g><path class="cls-8" d="m430.2,66C387.35,23.61,329.75,0,269.12,0v24.47c54.24,0,105.22,20.93,143.62,58.92l17.46-17.39Z"/><path class="cls-1" d="m402.75,392.04l17.57,17.39c46.43-45.93,70.4-108.82,66.28-173.64-3.36-52.91-25.49-104.85-66.28-145.2l-17.57,17.28c33.52,30.37,54.78,82.1,58.79,126.85,5.32,57.95-17.25,116.33-58.79,157.33h0Z"/><path class="cls-7" d="m259.14,49.04v-24.58c-58.25,0-116.61,22.11-161.08,66.11l17.46,17.28c38.4-37.88,89.38-58.81,143.62-58.81h0Z"/><path class="cls-9" d="m91.22,95.51l-18.98-18.89c-96.32,95.3-96.32,251.45,0,346.75l18.98-18.89C4.99,319.17,4.99,180.83,91.22,95.51h0Z"/><path class="cls-5" d="m269.12,475.42v24.58c58.25,0,116.61-22.11,161.08-66.11l-17.46-17.28c-38.4,37.88-89.38,58.81-143.62,58.81h0Z"/><path class="cls-3" d="m115.52,392.04l-17.46,17.39c44.47,44,102.83,66,161.08,66v-24.47c-54.24,0-105.22-20.93-143.62-58.92h0Z"/><path class="cls-6" d="m373.8,136.61l28.95-28.75c-38.29-37.89-89.27-58.81-143.61-58.81v40.67c-44.7,0-85.27,17.91-114.55,46.89l-29.07-28.75c-79.29,78.55-79.29,205.73,0,284.17l29.07-28.65c29.28,28.98,69.85,46.89,114.55,46.89v40.67c54.34,0,105.31-20.93,143.61-58.92l-28.95-28.65c62.9-62.35,62.9-164.52,0-226.77Zm-18.23,119.93c-1.77,8.33-6.79,16.2-15.02,21.81-24.48,16.69-76.02,46.14-102.78,59.35-22.61,11.16-49.12-3.16-49.12-28.37-.01-11.74-.06-28.13-.11-45.5-.01-4.32-.01-8.69-.02-13.07-.05-22.51-.05-45.11.13-60.12.28-25.2,26.65-39.79,49.12-28.36,26.41,13.46,77.77,43.21,102.78,59.34,4.34,2.8,7.78,6.23,10.31,10.05,4.97,7.46,6.52,16.39,4.7,24.86Z"/></g><path class="cls-4" d="m412.72,80.16c-38.09-36.88-88.11-57.4-141.31-57.98V2.3c58.62.57,113.67,23.13,155.52,63.71l-14.21,14.15Zm51.11,154.33c.87,9.5.98,19.05.39,28.56,6.54,3.25,12.96,6.73,19.26,10.44,1.33-12.39,1.63-24.95.83-37.57-3.4-53.49-26.11-103.87-64-142.12l-14.23,14c30.85,29.02,53.42,78.43,57.75,126.69ZM115.53,104.64c38.13-36.82,88.15-57.3,141.31-57.88v-19.99c-58.55.57-113.6,23.17-155.52,63.81l14.21,14.06Zm-50.45,272.73c-26.52-37-40.83-81.09-40.83-127.37,0-58.21,22.61-112.98,63.72-154.48l-15.73-15.65C27.12,125.34,2.29,185.67,2.29,250c0,54.62,17.9,106.34,50.92,148.55,3.67-7.21,7.64-14.27,11.87-21.17Zm307.09-239.13l-1.64-1.62,28.95-28.75c-37.17-35.95-86.02-55.95-138.06-56.52v40.66h-2.29c-42.69,0-82.8,16.42-112.94,46.23l-1.61,1.6-29.06-28.75c-36.92,37.39-57.2,86.65-57.19,138.97.01,35.21,9.27,69.01,26.55,98.73,7.63-9.76,15.86-19.09,24.67-27.91,23.23-23.23,49.96-42.42,78.94-57.02.01-.01.02-.02.04-.02-.01-4.32-.01-8.69-.02-13.07-.05-22.51-.05-45.11.13-60.12.28-25.2,26.65-39.79,49.12-28.36,26.41,13.46,77.77,43.21,102.78,59.34,4.34,2.8,7.78,6.23,10.31,10.05,23.05,1.79,45.77,6.21,67.69,13.05-1.3-40.39-17.62-78.04-46.38-106.49Z"/><path class="cls-2" d="m340.55,292.12c-24.48,16.68-76.02,46.14-102.78,59.35-22.61,11.16-48.98-3.16-49.12-28.37-.09-14.82-.14-37.01-.14-59.23,0-4.38,0-8.76.01-13.09.01,4.38.01,8.75.02,13.07.05,17.36.09,33.75.11,45.5,0,25.21,26.51,39.52,49.12,28.37,26.76-13.21,78.3-42.66,102.78-59.35,8.22-5.61,13.24-13.48,15.02-21.81,2.78,12.8-2.31,26.91-15.02,35.57Z"/></svg>