<?xml version="1.0" encoding="UTF-8"?><svg id="Layer_1" xmlns="http://www.w3.org/2000/svg" xmlns:xlink="http://www.w3.org/1999/xlink" viewBox="0 0 1472.96 355.54"><defs><style>.cls-1{fill:url(#linear-gradient-2);}.cls-2{fill:#fff;}.cls-3{fill:#b2cc54;}.cls-4{fill:url(#linear-gradient-6);}.cls-5{fill:url(#radial-gradient);}.cls-6{fill:url(#linear-gradient-5);}.cls-7{fill:url(#linear-gradient-7);}.cls-8{fill:url(#linear-gradient-3);}.cls-9{fill:url(#linear-gradient);}.cls-10{fill:url(#linear-gradient-4);}</style><linearGradient id="linear-gradient" x1="248.64" y1="-14.91" x2="248.64" y2="356.47" gradientUnits="userSpaceOnUse"><stop offset="0" stop-color="#13bf00"/><stop offset="1" stop-color="#c1cc00"/></linearGradient><linearGradient id="linear-gradient-2" x1="316.37" y1="-14.91" x2="316.37" y2="356.47" xlink:href="#linear-gradient"/><linearGradient id="linear-gradient-3" x1="127" y1="-14.91" x2="127" y2="356.47" xlink:href="#linear-gradient"/><linearGradient id="linear-gradient-4" x1="32.43" y1="-14.91" x2="32.43" y2="356.47" xlink:href="#linear-gradient"/><linearGradient id="linear-gradient-5" y1="-14.91" y2="356.47" xlink:href="#linear-gradient"/><linearGradient id="linear-gradient-6" x1="127" y1="-14.92" x2="127" y2="356.47" xlink:href="#linear-gradient"/><linearGradient id="linear-gradient-7" x1="169.61" y1="-14.91" x2="169.61" y2="356.47" xlink:href="#linear-gradient"/><radialGradient id="radial-gradient" cx="173.17" cy="142.52" fx="173.17" fy="142.52" r="156.96" gradientUnits="userSpaceOnUse"><stop offset="0" stop-color="#c1cc00"/><stop offset="1" stop-color="#13bf00"/></radialGradient></defs><g><g><path class="cls-9" d="m305.91,46.93C275.44,16.79,234.48,0,191.37,0v17.4c38.57,0,74.82,14.88,102.12,41.9l12.42-12.36Z"/><path class="cls-1" d="m286.39,278.77l12.5,12.36c33.01-32.66,50.06-77.38,47.13-123.48-2.39-37.62-18.13-74.56-47.13-103.25l-12.5,12.29c23.83,21.6,38.95,58.38,41.81,90.2,3.78,41.21-12.26,82.72-41.81,111.88h0Z"/><path class="cls-8" d="m184.27,34.88v-17.48c-41.42,0-82.92,15.72-114.54,47.01l12.42,12.29c27.3-26.94,63.56-41.82,102.12-41.82h0Z"/><path class="cls-10" d="m64.87,67.92l-13.5-13.43c-68.49,67.77-68.49,178.8,0,246.57l13.5-13.43c-61.32-60.67-61.32-159.04,0-219.71h0Z"/><path class="cls-6" d="m191.37,338.07v17.48c41.42,0,82.92-15.72,114.54-47.01l-12.42-12.29c-27.31,26.94-63.56,41.82-102.12,41.82h0Z"/><path class="cls-4" d="m82.15,278.77l-12.42,12.36c31.62,31.29,73.12,46.93,114.54,46.93v-17.4c-38.57,0-74.82-14.88-102.12-41.9h0Z"/><path class="cls-7" d="m265.8,97.15l20.59-20.45c-27.23-26.95-63.48-41.82-102.12-41.82v28.92c-31.78,0-60.63,12.74-81.45,33.34l-20.67-20.45c-56.39,55.86-56.39,146.29,0,202.07l20.67-20.37c20.82,20.61,49.67,33.34,81.45,33.34v28.92c38.64,0,74.89-14.88,102.12-41.89l-20.59-20.37c44.73-44.34,44.73-116.99,0-161.26Zm-12.96,85.28c-1.26,5.92-4.83,11.52-10.68,15.51-17.41,11.87-54.06,32.81-73.09,42.2-16.08,7.93-34.93-2.24-34.93-20.17,0-8.35-.04-20-.08-32.35,0-3.07,0-6.18-.02-9.29-.03-16.01-.03-32.08.09-42.75.2-17.92,18.95-28.3,34.93-20.16,18.78,9.57,55.3,30.72,73.09,42.2,3.09,1.99,5.53,4.43,7.33,7.15,3.54,5.31,4.64,11.65,3.35,17.68Z"/></g><path class="cls-5" d="m293.48,57c-27.09-26.23-62.65-40.82-100.48-41.23V1.64c41.68.41,80.83,16.45,110.59,45.3l-10.11,10.06Zm36.34,109.74c.62,6.76.7,13.55.28,20.31,4.65,2.31,9.22,4.79,13.7,7.42.94-8.81,1.16-17.75.59-26.72-2.42-38.03-18.56-73.86-45.51-101.06l-10.12,9.95c21.93,20.64,37.99,55.77,41.07,90.09ZM82.15,74.41c27.11-26.18,62.68-40.75,100.49-41.16v-14.22c-41.63.41-80.78,16.47-110.59,45.38l10.1,10Zm-35.87,193.94c-18.86-26.31-29.03-57.66-29.03-90.57,0-41.39,16.08-80.34,45.31-109.85l-11.19-11.13C19.28,89.13,1.63,132.03,1.63,177.77c0,38.84,12.73,75.62,36.21,105.63,2.61-5.12,5.43-10.15,8.44-15.06Zm218.37-170.04l-1.17-1.15,20.59-20.45c-26.43-25.56-61.17-39.78-98.17-40.19v28.91h-1.63c-30.36,0-58.88,11.68-80.31,32.88l-1.14,1.13-20.66-20.45c-26.25,26.59-40.68,61.62-40.67,98.82,0,25.04,6.59,49.07,18.88,70.21,5.42-6.94,11.28-13.57,17.54-19.85,16.52-16.52,35.53-30.17,56.13-40.54,0,0,.02-.02.03-.02,0-3.07,0-6.18-.02-9.29-.03-16.01-.03-32.08.09-42.75.2-17.92,18.95-28.3,34.93-20.16,18.78,9.57,55.3,30.72,73.09,42.2,3.09,1.99,5.53,4.43,7.33,7.15,16.39,1.28,32.54,4.41,48.13,9.28-.93-28.72-12.53-55.49-32.98-75.72Z"/><path class="cls-3" d="m242.16,207.72c-17.41,11.86-54.06,32.81-73.09,42.2-16.08,7.93-34.83-2.24-34.93-20.17-.07-10.54-.1-26.32-.1-42.12,0-3.11,0-6.23,0-9.31,0,3.11,0,6.22.02,9.29.03,12.35.07,24,.08,32.35,0,17.93,18.85,28.1,34.93,20.17,19.03-9.39,55.68-30.33,73.09-42.2,5.85-3.99,9.42-9.59,10.68-15.51,1.98,9.1-1.64,19.14-10.68,25.29Z"/></g><path class="cls-2" d="m462.78,199.46v-41.86h-42.04l-19.48-22.41v-25.18l19.48-22.32h10.99v39.67h44.68l18.82,22.4v27.37l-19.41,22.32h-13.04Zm-61.52-33.52h32.37v13.31h24.02v20.21h-40.06l-16.33-22.32v-11.2Zm35.6-58.12v-20.13h38.89l16.85,19.46v11.88h-29.81v-11.2h-25.93Zm103.35,69.32h21.39v22.32h-34.28l-19.48-22.32v-44.81h-6.45v-22.32h6.45v-9.69l32.37-12.63v89.45Zm5.13-44.81v-22.32h17.43v22.32h-17.43Zm25.64,67.13v-89.45h32.37v89.45h-32.37Zm51.34-67.13h-13.77v-9.77l10.84-12.55h19.63l15.75,20.89v23.16h-32.45v-21.73Zm71.12,67.13h-12.96l-19.41-22.32v-44.81l19.41-22.32h12.96v89.45Zm5.13-35.88v-15.58h17.07v-15.67h-17.07v-22.32h27.47l19.41,22.32v31.25h-46.88Zm0,35.88v-20.89h43.51v9.69l-9.67,11.2h-33.84Zm103.79-52.05v15.5h-16.7v15.67h16.7v9.85l-9.67,11.03h-24.76l-13.04-14.74v-22.4l13.04-14.91h34.42Zm5.13,52.05v-67.13h-46.07v-11.12l9.74-11.2h48.56l19.41,22.32v67.13h-31.64Zm44.32,0v-89.45h32.45v89.45h-32.45Zm50.76-67.13h-13.18v-10.53l10.18-11.79h25.05l10.4,11.96v77.49h-32.45v-67.13Zm50.76,0h-13.18v-10.36l9.96-11.96h19.78l15.82,18.36v71.09h-32.37v-67.13Zm44.97,67.13v-111.77h32.37v111.77h-32.37Zm37.5-89.45v-22.32h36.99l19.48,22.32v33.52l-14.94,17.18-1.03-2.36-30.4,4.63,1.17,2.95h-11.28v-21.65h24.32v-34.28h-24.32Zm59.77,89.45h-34.57l-13.92-33.52h25.71l4.54-5.22,18.24,38.75Zm53.76-52.05v15.5h-16.7v15.67h16.7v9.85l-9.67,11.03h-24.76l-13.04-14.74v-22.4l13.04-14.91h34.42Zm5.13,52.05v-67.13h-46.07v-11.12l9.74-11.2h48.56l19.41,22.32v67.13h-31.64Zm74.93-20.89h15.6v12.04l-7.69,8.84h-22.78l-17.5-20.13v-49.19l17.5-20.13h30.47v22.32h-15.6v46.24Zm53.1-102.67v123.56h-32.37v-123.56h32.37Zm58.38,71.51v15.5h-16.7v15.67h16.7v9.85l-9.67,11.03h-24.76l-13.04-14.74v-22.4l13.04-14.91h34.42Zm5.13,52.05v-67.13h-46.07v-11.12l9.74-11.2h48.56l19.41,22.32v67.13h-31.64Zm43.21,0v-89.45h32.37v89.45h-32.37Zm51.34-67.13h-13.77v-9.77l10.84-12.55h19.63l15.75,20.89v23.16h-32.45v-21.73ZM412.73,279.27v-39.25h-13.36v-5.57h32.23v5.57h-13.36v39.25h-5.51Zm23.05,0v-33.93h5.12v9.22l-.5-2.3c.82-2.35,2.19-4.14,4.12-5.38,1.93-1.24,4.31-1.86,7.13-1.86v5.95c-.22-.04-.44-.06-.64-.06h-.58c-2.86,0-5.12.98-6.79,2.95-1.67,1.96-2.51,4.8-2.51,8.51v16.9h-5.34Zm34.35.38c-2.93,0-5.56-.75-7.88-2.24-2.32-1.49-4.15-3.55-5.48-6.18-1.34-2.62-2-5.6-2-8.93s.67-6.35,2-8.93c1.34-2.58,3.15-4.62,5.46-6.11,2.3-1.49,4.94-2.24,7.91-2.24s5.56.74,7.88,2.21c2.32,1.47,4.14,3.51,5.46,6.11,1.32,2.6,1.98,5.59,1.98,8.96s-.66,6.36-1.98,8.96c-1.32,2.6-3.14,4.65-5.46,6.15-2.32,1.49-4.95,2.24-7.88,2.24Zm0-5.38c1.89,0,3.59-.49,5.09-1.47,1.5-.98,2.68-2.38,3.54-4.19.85-1.81,1.28-3.92,1.28-6.31s-.43-4.54-1.28-6.31c-.85-1.77-2.03-3.15-3.54-4.13-1.5-.98-3.2-1.47-5.09-1.47s-3.58.49-5.07,1.47c-1.48.98-2.67,2.36-3.56,4.13-.89,1.77-1.34,3.87-1.34,6.31s.45,4.49,1.34,6.31c.89,1.82,2.08,3.21,3.56,4.19,1.48.98,3.17,1.47,5.07,1.47Zm34.02,5.38c-2.52,0-4.74-.53-6.65-1.6-1.91-1.07-3.4-2.7-4.45-4.9-1.06-2.2-1.59-4.96-1.59-8.29v-19.53h5.34v18.82c0,3.33.7,5.83,2.09,7.49,1.39,1.67,3.35,2.5,5.87,2.5,1.86,0,3.47-.44,4.84-1.31,1.37-.87,2.43-2.15,3.17-3.84.74-1.69,1.11-3.72,1.11-6.11v-17.54h5.34v33.93h-5.07v-9.16l.83,2.43c-.97,2.26-2.41,4.01-4.34,5.25-1.93,1.24-4.1,1.86-6.51,1.86Zm31.9-.38l-12.92-33.93h5.57l11.47,30.73h-2.67l11.69-30.73h5.23l-12.92,33.93h-5.46Zm35.41.38c-3.15,0-5.93-.75-8.32-2.24-2.39-1.49-4.25-3.54-5.57-6.15-1.32-2.6-1.98-5.59-1.98-8.96s.64-6.36,1.92-8.96c1.28-2.6,3.04-4.64,5.29-6.11,2.25-1.47,4.78-2.21,7.6-2.21s5.38.73,7.57,2.18c2.19,1.45,3.91,3.49,5.15,6.11,1.24,2.62,1.86,5.69,1.86,9.19,0,.26,0,.55-.03.9-.02.34-.05.66-.08.96h-25.11v-4.42h22.32l-2.17,1.54c.04-2.18-.35-4.12-1.17-5.83-.82-1.71-1.94-3.04-3.37-4-1.43-.96-3.09-1.44-4.98-1.44s-3.51.48-4.96,1.44c-1.45.96-2.58,2.3-3.4,4.03-.82,1.73-1.23,3.7-1.23,5.92v1.02c0,2.26.45,4.28,1.36,6.05.91,1.77,2.18,3.15,3.81,4.13,1.63.98,3.51,1.47,5.62,1.47,1.74,0,3.33-.34,4.76-1.02,1.43-.68,2.68-1.71,3.76-3.07l2.95,3.97c-1.34,1.79-3,3.16-4.98,4.1-1.99.94-4.2,1.41-6.65,1.41Zm16.98-.38v-3.97l18.93-27.02,1.06,2.11h-19.65v-5.06h23.94v4.03l-18.93,26.95-1.22-2.11h20.6v5.06h-24.72Zm44.59,0v-47.5h5.34v47.5h-5.34Zm27.56.38c-3.15,0-5.93-.75-8.32-2.24-2.39-1.49-4.25-3.54-5.57-6.15-1.32-2.6-1.98-5.59-1.98-8.96s.64-6.36,1.92-8.96c1.28-2.6,3.04-4.64,5.29-6.11,2.25-1.47,4.78-2.21,7.6-2.21s5.38.73,7.57,2.18c2.19,1.45,3.91,3.49,5.15,6.11,1.24,2.62,1.86,5.69,1.86,9.19,0,.26,0,.55-.03.9-.02.34-.05.66-.08.96h-25.11v-4.42h22.32l-2.17,1.54c.04-2.18-.35-4.12-1.17-5.83-.82-1.71-1.94-3.04-3.37-4-1.43-.96-3.09-1.44-4.98-1.44s-3.51.48-4.96,1.44c-1.45.96-2.58,2.3-3.4,4.03-.82,1.73-1.23,3.7-1.23,5.92v1.02c0,2.26.45,4.28,1.36,6.05.91,1.77,2.18,3.15,3.81,4.13,1.63.98,3.51,1.47,5.62,1.47,1.74,0,3.33-.34,4.76-1.02,1.43-.68,2.68-1.71,3.76-3.07l2.95,3.97c-1.34,1.79-3,3.16-4.98,4.1-1.99.94-4.2,1.41-6.65,1.41Zm28.28,0c-2.45,0-4.78-.38-6.99-1.15-2.21-.77-3.94-1.71-5.2-2.82l2.23-4.87c1.26.98,2.82,1.81,4.68,2.5,1.86.68,3.75,1.02,5.68,1.02,2.49,0,4.28-.41,5.37-1.22,1.09-.81,1.64-1.94,1.64-3.39,0-1.07-.33-1.9-1-2.5s-1.55-1.05-2.64-1.34c-1.1-.3-2.31-.57-3.65-.8s-2.67-.53-4.01-.9c-1.34-.36-2.56-.87-3.67-1.54-1.11-.66-2-1.58-2.67-2.75-.67-1.17-1-2.74-1-4.71s.5-3.84,1.5-5.38c1-1.54,2.42-2.72,4.26-3.55,1.84-.83,4.02-1.25,6.54-1.25,1.93,0,3.89.27,5.87.8,1.99.53,3.61,1.29,4.87,2.27l-2.28,4.87c-1.34-1.02-2.73-1.73-4.18-2.11-1.45-.38-2.89-.58-4.34-.58-2.34,0-4.08.44-5.23,1.31s-1.72,2-1.72,3.36c0,1.15.34,2.04,1.03,2.66.69.62,1.58,1.1,2.67,1.44,1.1.34,2.31.63,3.65.86,1.34.24,2.67.53,4.01.9,1.34.36,2.55.86,3.65,1.5,1.09.64,1.98,1.54,2.67,2.69.69,1.15,1.03,2.69,1.03,4.61,0,2.05-.52,3.82-1.56,5.31-1.04,1.49-2.51,2.66-4.4,3.49s-4.16,1.25-6.79,1.25Zm69.09-34.64c2.38,0,4.47.53,6.29,1.6,1.82,1.07,3.24,2.69,4.26,4.87s1.53,4.93,1.53,8.26v19.53h-5.34v-18.82c0-3.29-.67-5.76-2-7.43-1.34-1.67-3.21-2.5-5.62-2.5-1.78,0-3.34.43-4.68,1.28-1.34.85-2.37,2.11-3.09,3.78-.72,1.67-1.08,3.74-1.08,6.21v17.48h-5.35v-18.82c0-3.29-.66-5.76-1.98-7.43-1.32-1.67-3.2-2.5-5.65-2.5-1.74,0-3.29.43-4.62,1.28-1.34.85-2.38,2.11-3.12,3.78-.74,1.67-1.11,3.74-1.11,6.21v17.48h-5.34v-33.93h5.12v9.03l-.84-2.31c.93-2.22,2.36-3.95,4.29-5.19,1.93-1.24,4.18-1.86,6.74-1.86,2.82,0,5.25.8,7.29,2.4s3.38,4.02,4.01,7.27l-2.17-1.02c.89-2.6,2.45-4.69,4.68-6.27s4.82-2.37,7.79-2.37Zm33.96,34.64c-3.16,0-5.93-.75-8.32-2.24-2.39-1.49-4.25-3.54-5.57-6.15-1.32-2.6-1.98-5.59-1.98-8.96s.64-6.36,1.92-8.96c1.28-2.6,3.04-4.64,5.29-6.11s4.78-2.21,7.6-2.21,5.38.73,7.57,2.18c2.19,1.45,3.9,3.49,5.15,6.11s1.87,5.69,1.87,9.19c0,.26,0,.55-.03.9-.02.34-.05.66-.08.96h-25.11v-4.42h22.32l-2.17,1.54c.04-2.18-.35-4.12-1.17-5.83-.82-1.71-1.94-3.04-3.37-4-1.43-.96-3.09-1.44-4.98-1.44s-3.51.48-4.96,1.44c-1.45.96-2.58,2.3-3.4,4.03-.82,1.73-1.22,3.7-1.22,5.92v1.02c0,2.26.46,4.28,1.37,6.05.91,1.77,2.18,3.15,3.81,4.13s3.51,1.47,5.62,1.47c1.74,0,3.33-.34,4.76-1.02,1.43-.68,2.68-1.71,3.76-3.07l2.95,3.97c-1.34,1.79-3,3.16-4.98,4.1-1.99.94-4.2,1.41-6.65,1.41Zm22.49-40.85c-1.04,0-1.9-.38-2.59-1.15-.69-.77-1.03-1.71-1.03-2.82s.34-2.11,1.03-2.88c.69-.77,1.55-1.15,2.59-1.15s1.9.38,2.59,1.12c.69.75,1.03,1.68,1.03,2.79s-.33,2.12-1,2.91-1.54,1.18-2.62,1.18Zm-2.67,40.46v-33.93h5.34v33.93h-5.34Zm14.42,0v-47.5h5.34v47.5h-5.34Zm14.42,0v-47.5h5.34v47.5h-5.34Zm27.56.38c-3.15,0-5.93-.75-8.32-2.24-2.39-1.49-4.25-3.54-5.57-6.15-1.32-2.6-1.98-5.59-1.98-8.96s.64-6.36,1.92-8.96c1.28-2.6,3.04-4.64,5.29-6.11,2.24-1.47,4.78-2.21,7.6-2.21s5.38.73,7.57,2.18c2.19,1.45,3.91,3.49,5.15,6.11,1.24,2.62,1.87,5.69,1.87,9.19,0,.26,0,.55-.03.9-.02.34-.05.66-.08.96h-25.11v-4.42h22.32l-2.17,1.54c.04-2.18-.35-4.12-1.17-5.83s-1.94-3.04-3.37-4c-1.43-.96-3.09-1.44-4.98-1.44s-3.51.48-4.95,1.44c-1.45.96-2.58,2.3-3.4,4.03-.82,1.73-1.22,3.7-1.22,5.92v1.02c0,2.26.45,4.28,1.36,6.05.91,1.77,2.18,3.15,3.81,4.13,1.63.98,3.51,1.47,5.62,1.47,1.74,0,3.33-.34,4.76-1.02,1.43-.68,2.68-1.71,3.76-3.07l2.95,3.97c-1.34,1.79-3,3.16-4.98,4.1-1.99.94-4.2,1.41-6.65,1.41Zm32.23,0c-2.52,0-4.74-.53-6.65-1.6-1.91-1.07-3.4-2.7-4.46-4.9-1.06-2.2-1.59-4.96-1.59-8.29v-19.53h5.34v18.82c0,3.33.7,5.83,2.09,7.49,1.39,1.67,3.35,2.5,5.88,2.5,1.86,0,3.47-.44,4.84-1.31,1.37-.87,2.43-2.15,3.17-3.84.74-1.69,1.11-3.72,1.11-6.11v-17.54h5.35v33.93h-5.07v-9.16l.83,2.43c-.96,2.26-2.41,4.01-4.34,5.25-1.93,1.24-4.1,1.86-6.51,1.86Zm24.16-.38v-33.93h5.12v9.22l-.5-2.3c.82-2.35,2.19-4.14,4.12-5.38,1.93-1.24,4.3-1.86,7.13-1.86v5.95c-.22-.04-.44-.06-.64-.06h-.58c-2.86,0-5.12.98-6.79,2.95-1.67,1.96-2.51,4.8-2.51,8.51v16.9h-5.34Zm30.17.38c-2.45,0-4.78-.38-6.99-1.15-2.21-.77-3.94-1.71-5.21-2.82l2.23-4.87c1.26.98,2.82,1.81,4.68,2.5,1.86.68,3.75,1.02,5.68,1.02,2.49,0,4.28-.41,5.37-1.22,1.09-.81,1.64-1.94,1.64-3.39,0-1.07-.33-1.9-1-2.5s-1.55-1.05-2.64-1.34c-1.1-.3-2.31-.57-3.65-.8s-2.67-.53-4.01-.9c-1.34-.36-2.56-.87-3.67-1.54-1.11-.66-2-1.58-2.67-2.75-.67-1.17-1-2.74-1-4.71s.5-3.84,1.5-5.38c1-1.54,2.42-2.72,4.26-3.55,1.84-.83,4.02-1.25,6.54-1.25,1.93,0,3.89.27,5.87.8,1.99.53,3.61,1.29,4.87,2.27l-2.28,4.87c-1.34-1.02-2.73-1.73-4.18-2.11-1.45-.38-2.89-.58-4.34-.58-2.34,0-4.08.44-5.23,1.31s-1.72,2-1.72,3.36c0,1.15.34,2.04,1.03,2.66.69.62,1.58,1.1,2.67,1.44,1.1.34,2.31.63,3.65.86,1.34.24,2.67.53,4.01.9,1.34.36,2.55.86,3.65,1.5,1.09.64,1.98,1.54,2.67,2.69.69,1.15,1.03,2.69,1.03,4.61,0,2.05-.52,3.82-1.56,5.31-1.04,1.49-2.51,2.66-4.4,3.49s-4.16,1.25-6.79,1.25Zm27.95-29.26v-5.06h18.82v5.06h-18.82Zm5.01,28.87v-36.94c0-3.33.84-5.99,2.53-7.97,1.69-1.99,4.09-2.98,7.21-2.98,1.15,0,2.26.16,3.31.48,1.06.32,1.96.82,2.7,1.5l-1.62,4.67c-.56-.51-1.19-.91-1.89-1.18-.71-.28-1.45-.42-2.23-.42-1.56,0-2.75.5-3.56,1.5-.82,1-1.22,2.49-1.22,4.45v4.55l.11,2.82v29.51h-5.35Zm21.54-40.46c-1.04,0-1.9-.38-2.59-1.15-.69-.77-1.03-1.71-1.03-2.82s.34-2.11,1.03-2.88c.69-.77,1.55-1.15,2.59-1.15s1.9.38,2.59,1.12c.69.75,1.03,1.68,1.03,2.79s-.33,2.12-1,2.91-1.54,1.18-2.62,1.18Zm-2.67,40.46v-33.93h5.34v33.93h-5.34Zm14.42,0v-47.5h5.34v47.5h-5.34Zm51.33-34.25c2.38,0,4.47.53,6.29,1.6,1.82,1.07,3.24,2.69,4.26,4.87,1.02,2.18,1.53,4.93,1.53,8.26v19.53h-5.35v-18.82c0-3.29-.67-5.76-2-7.43-1.34-1.67-3.21-2.5-5.62-2.5-1.78,0-3.34.43-4.68,1.28-1.34.85-2.37,2.11-3.09,3.78-.72,1.67-1.09,3.74-1.09,6.21v17.48h-5.34v-18.82c0-3.29-.66-5.76-1.98-7.43-1.32-1.67-3.2-2.5-5.65-2.5-1.75,0-3.29.43-4.62,1.28-1.34.85-2.38,2.11-3.12,3.78-.74,1.67-1.12,3.74-1.12,6.21v17.48h-5.34v-33.93h5.12v9.03l-.83-2.31c.93-2.22,2.36-3.95,4.29-5.19,1.93-1.24,4.18-1.86,6.74-1.86,2.82,0,5.25.8,7.29,2.4,2.04,1.6,3.38,4.02,4.01,7.27l-2.17-1.02c.89-2.6,2.45-4.69,4.68-6.27s4.82-2.37,7.79-2.37Zm29.28,34.64c-2.45,0-4.78-.38-6.99-1.15-2.21-.77-3.94-1.71-5.21-2.82l2.23-4.87c1.26.98,2.82,1.81,4.68,2.5,1.86.68,3.75,1.02,5.68,1.02,2.49,0,4.28-.41,5.37-1.22,1.1-.81,1.64-1.94,1.64-3.39,0-1.07-.33-1.9-1-2.5s-1.55-1.05-2.64-1.34c-1.09-.3-2.31-.57-3.65-.8s-2.67-.53-4.01-.9c-1.34-.36-2.56-.87-3.67-1.54-1.11-.66-2-1.58-2.67-2.75-.67-1.17-1-2.74-1-4.71s.5-3.84,1.5-5.38c1-1.54,2.42-2.72,4.26-3.55,1.84-.83,4.02-1.25,6.54-1.25,1.93,0,3.89.27,5.87.8,1.98.53,3.61,1.29,4.87,2.27l-2.28,4.87c-1.34-1.02-2.73-1.73-4.17-2.11-1.45-.38-2.9-.58-4.34-.58-2.34,0-4.08.44-5.23,1.31s-1.73,2-1.73,3.36c0,1.15.34,2.04,1.03,2.66.69.62,1.58,1.1,2.67,1.44,1.09.34,2.31.63,3.65.86,1.34.24,2.67.53,4.01.9,1.34.36,2.55.86,3.65,1.5,1.09.64,1.98,1.54,2.67,2.69s1.03,2.69,1.03,4.61c0,2.05-.52,3.82-1.56,5.31-1.04,1.49-2.51,2.66-4.4,3.49s-4.16,1.25-6.79,1.25Zm45.32,0c-3.15,0-5.93-.75-8.32-2.24-2.39-1.49-4.25-3.54-5.57-6.15-1.32-2.6-1.98-5.59-1.98-8.96s.64-6.36,1.92-8.96c1.28-2.6,3.04-4.64,5.29-6.11,2.24-1.47,4.78-2.21,7.6-2.21s5.38.73,7.57,2.18c2.19,1.45,3.91,3.49,5.15,6.11,1.24,2.62,1.87,5.69,1.87,9.19,0,.26,0,.55-.03.9-.02.34-.05.66-.08.96h-25.11v-4.42h22.32l-2.17,1.54c.04-2.18-.35-4.12-1.17-5.83s-1.94-3.04-3.37-4c-1.43-.96-3.09-1.44-4.98-1.44s-3.51.48-4.95,1.44c-1.45.96-2.58,2.3-3.4,4.03-.82,1.73-1.22,3.7-1.22,5.92v1.02c0,2.26.45,4.28,1.36,6.05.91,1.77,2.18,3.15,3.81,4.13,1.63.98,3.51,1.47,5.62,1.47,1.74,0,3.33-.34,4.76-1.02,1.43-.68,2.68-1.71,3.76-3.07l2.95,3.97c-1.34,1.79-3,3.16-4.98,4.1-1.99.94-4.2,1.41-6.65,1.41Zm15.59-29.26v-5.06h18.82v5.06h-18.82Zm14.36,29.26c-2.97,0-5.27-.92-6.9-2.75-1.63-1.83-2.45-4.46-2.45-7.87v-31.12h5.34v30.86c0,1.84.4,3.24,1.2,4.23.8.98,1.94,1.47,3.42,1.47,1.67,0,3.06-.53,4.18-1.6l1.67,4.42c-.82.81-1.79,1.41-2.92,1.79-1.13.38-2.31.58-3.54.58Zm34.13,0c-2.45,0-4.78-.38-6.99-1.15-2.21-.77-3.94-1.71-5.21-2.82l2.23-4.87c1.26.98,2.82,1.81,4.68,2.5,1.86.68,3.75,1.02,5.68,1.02,2.49,0,4.28-.41,5.37-1.22,1.09-.81,1.64-1.94,1.64-3.39,0-1.07-.33-1.9-1-2.5s-1.55-1.05-2.64-1.34c-1.1-.3-2.31-.57-3.65-.8s-2.67-.53-4.01-.9c-1.34-.36-2.56-.87-3.67-1.54-1.11-.66-2-1.58-2.67-2.75-.67-1.17-1-2.74-1-4.71s.5-3.84,1.5-5.38c1-1.54,2.42-2.72,4.26-3.55,1.84-.83,4.02-1.25,6.54-1.25,1.93,0,3.89.27,5.87.8,1.99.53,3.61,1.29,4.87,2.27l-2.28,4.87c-1.34-1.02-2.73-1.73-4.18-2.11-1.45-.38-2.89-.58-4.34-.58-2.34,0-4.08.44-5.23,1.31s-1.72,2-1.72,3.36c0,1.15.34,2.04,1.03,2.66.69.62,1.58,1.1,2.67,1.44,1.1.34,2.31.63,3.65.86,1.34.24,2.67.53,4.01.9,1.34.36,2.55.86,3.65,1.5,1.09.64,1.98,1.54,2.67,2.69.69,1.15,1.03,2.69,1.03,4.61,0,2.05-.52,3.82-1.56,5.31-1.04,1.49-2.51,2.66-4.4,3.49s-4.16,1.25-6.79,1.25Zm31.45,0c-3.15,0-5.93-.75-8.32-2.24-2.39-1.49-4.25-3.54-5.57-6.15-1.32-2.6-1.98-5.59-1.98-8.96s.64-6.36,1.92-8.96c1.28-2.6,3.04-4.64,5.29-6.11,2.24-1.47,4.78-2.21,7.6-2.21s5.38.73,7.57,2.18c2.19,1.45,3.91,3.49,5.15,6.11,1.24,2.62,1.87,5.69,1.87,9.19,0,.26,0,.55-.03.9-.02.34-.05.66-.08.96h-25.11v-4.42h22.32l-2.17,1.54c.04-2.18-.35-4.12-1.17-5.83s-1.94-3.04-3.37-4c-1.43-.96-3.09-1.44-4.98-1.44s-3.51.48-4.95,1.44c-1.45.96-2.58,2.3-3.4,4.03-.82,1.73-1.22,3.7-1.22,5.92v1.02c0,2.26.45,4.28,1.36,6.05.91,1.77,2.18,3.15,3.81,4.13,1.63.98,3.51,1.47,5.62,1.47,1.74,0,3.33-.34,4.76-1.02,1.43-.68,2.68-1.71,3.76-3.07l2.95,3.97c-1.34,1.79-3,3.16-4.98,4.1-1.99.94-4.2,1.41-6.65,1.41Zm-5.29-39.25l7.57-8.32h6.79l-9.35,8.32h-5.01Zm25.11,38.86v-33.93h5.12v9.22l-.5-2.3c.82-2.35,2.19-4.14,4.12-5.38,1.93-1.24,4.3-1.86,7.12-1.86v5.95c-.22-.04-.44-.06-.64-.06h-.58c-2.86,0-5.12.98-6.79,2.95-1.67,1.96-2.51,4.8-2.51,8.51v16.9h-5.34Zm24.38-40.46c-1.04,0-1.9-.38-2.59-1.15-.69-.77-1.03-1.71-1.03-2.82s.34-2.11,1.03-2.88c.69-.77,1.55-1.15,2.59-1.15s1.9.38,2.59,1.12c.69.75,1.03,1.68,1.03,2.79s-.33,2.12-1,2.91c-.67.79-1.54,1.18-2.62,1.18Zm-2.67,40.46v-33.93h5.34v33.93h-5.34Zm27.56.38c-3.15,0-5.93-.75-8.32-2.24-2.39-1.49-4.25-3.54-5.57-6.15-1.32-2.6-1.98-5.59-1.98-8.96s.64-6.36,1.92-8.96c1.28-2.6,3.04-4.64,5.29-6.11,2.24-1.47,4.78-2.21,7.6-2.21s5.38.73,7.57,2.18c2.19,1.45,3.91,3.49,5.15,6.11,1.24,2.62,1.87,5.69,1.87,9.19,0,.26,0,.55-.03.9-.02.34-.05.66-.08.96h-25.11v-4.42h22.32l-2.17,1.54c.04-2.18-.35-4.12-1.17-5.83s-1.94-3.04-3.37-4c-1.43-.96-3.09-1.44-4.98-1.44s-3.51.48-4.95,1.44c-1.45.96-2.58,2.3-3.4,4.03-.82,1.73-1.22,3.7-1.22,5.92v1.02c0,2.26.45,4.28,1.36,6.05.91,1.77,2.18,3.15,3.81,4.13,1.63.98,3.51,1.47,5.62,1.47,1.74,0,3.33-.34,4.76-1.02,1.43-.68,2.68-1.71,3.76-3.07l2.95,3.97c-1.34,1.79-3,3.16-4.98,4.1-1.99.94-4.2,1.41-6.65,1.41Zm28.28,0c-2.45,0-4.78-.38-6.99-1.15-2.21-.77-3.94-1.71-5.21-2.82l2.23-4.87c1.26.98,2.82,1.81,4.68,2.5,1.86.68,3.75,1.02,5.68,1.02,2.49,0,4.28-.41,5.37-1.22,1.1-.81,1.64-1.94,1.64-3.39,0-1.07-.33-1.9-1-2.5s-1.55-1.05-2.64-1.34c-1.09-.3-2.31-.57-3.65-.8s-2.67-.53-4.01-.9c-1.34-.36-2.56-.87-3.67-1.54-1.11-.66-2-1.58-2.67-2.75-.67-1.17-1-2.74-1-4.71s.5-3.84,1.5-5.38c1-1.54,2.42-2.72,4.26-3.55,1.84-.83,4.02-1.25,6.54-1.25,1.93,0,3.89.27,5.87.8,1.98.53,3.61,1.29,4.87,2.27l-2.28,4.87c-1.34-1.02-2.73-1.73-4.17-2.11-1.45-.38-2.9-.58-4.34-.58-2.34,0-4.08.44-5.23,1.31s-1.73,2-1.73,3.36c0,1.15.34,2.04,1.03,2.66.69.62,1.58,1.1,2.67,1.44,1.09.34,2.31.63,3.65.86,1.34.24,2.67.53,4.01.9,1.34.36,2.55.86,3.65,1.5,1.09.64,1.98,1.54,2.67,2.69s1.03,2.69,1.03,4.61c0,2.05-.52,3.82-1.56,5.31-1.04,1.49-2.51,2.66-4.4,3.49s-4.16,1.25-6.79,1.25Zm40.7-.38v-39.25h-13.36v-5.57h32.23v5.57h-13.36v39.25h-5.51Zm35.07,0l-17.15-44.82h6.01l15.75,41.36h-3.45l15.87-41.36h5.57l-17.09,44.82h-5.51Z"/></svg>